<?xml version="1.0" encoding="utf-8"?>
<!-- Generator: Adobe Illustrator 27.1.1, SVG Export Plug-In . SVG Version: 6.00 Build 0)  -->
<svg version="1.1" id="Design" xmlns="http://www.w3.org/2000/svg" xmlns:xlink="http://www.w3.org/1999/xlink" x="0px" y="0px"
	 viewBox="0 0 288 288" style="enable-background:new 0 0 288 288;" xml:space="preserve">
<style type="text/css">
	.st0{fill:url(#XMLID_00000155862368804522752360000014471049599954727051_);}
	.st1{fill:url(#XMLID_00000145767964437721011060000002095748477385141146_);}
	.st2{fill:url(#XMLID_00000083084178868887920210000004688546384678120119_);}
	.st3{fill:url(#XMLID_00000011751826062531779930000000022800902106435243_);}
	.st4{fill:url(#XMLID_00000109017938206528666320000009201237887451064193_);}
	.st5{fill:url(#XMLID_00000134950506174191853080000001722935390943019907_);}
</style>
<g id="XMLID_903_">
	
		<linearGradient id="XMLID_00000165202474876716830540000015882242400827803301_" gradientUnits="userSpaceOnUse" x1="-35.6947" y1="281.9937" x2="297.9061" y2="157.7019">
		<stop  offset="0" style="stop-color:#FFFFFF"/>
		<stop  offset="0.2347" style="stop-color:#8A8A8A"/>
		<stop  offset="0.3827" style="stop-color:#797B7E"/>
		<stop  offset="0.5714" style="stop-color:#BCBDBF"/>
		<stop  offset="0.7041" style="stop-color:#F3F3F3"/>
		<stop  offset="0.9235" style="stop-color:#797B7E"/>
	</linearGradient>
	<path id="XMLID_904_" style="fill:url(#XMLID_00000165202474876716830540000015882242400827803301_);" d="M114.8,211.2
		c16.9-1.5,37-17.2,53.6-23.7s28.3-8,44.4-1.5c13.8,5.6,16.9,15.7,16.9,15.7s-14.5-14.5-42.8-4.9C152,208.4,128.4,213.9,114.8,211.2
		z"/>
	
		<linearGradient id="XMLID_00000067200961862219862280000012038176894266607491_" gradientUnits="userSpaceOnUse" x1="-328.8587" y1="364.844" x2="548.3079" y2="-61.5847">
		<stop  offset="0" style="stop-color:#FF1919"/>
		<stop  offset="0.1786" style="stop-color:#FFB41E"/>
		<stop  offset="0.3265" style="stop-color:#31E500"/>
		<stop  offset="0.4796" style="stop-color:#00CBDB"/>
		<stop  offset="0.6786" style="stop-color:#710FFF"/>
		<stop  offset="0.8214" style="stop-color:#EA00CA"/>
		<stop  offset="1" style="stop-color:#F40006"/>
	</linearGradient>
	<path id="XMLID_905_" style="fill:url(#XMLID_00000067200961862219862280000012038176894266607491_);" d="M172.1,109.4
		c-14.8-32.3-17.9-68.5-17.9-68.5c-27,71.3-53.2,120.9-88.1,165.7c43.7,6.8,80.1-17.9,107.8-29.6c27.7-11.7,49.3,8.6,49.3,8.6
		C213.4,169.4,186.9,141.7,172.1,109.4z"/>
	
		<linearGradient id="XMLID_00000114766893343266112730000015642543595643262621_" gradientUnits="userSpaceOnUse" x1="-493.2635" y1="436.1798" x2="543.7407" y2="-54.8937">
		<stop  offset="0" style="stop-color:#FF1919"/>
		<stop  offset="0.1786" style="stop-color:#FFB41E"/>
		<stop  offset="0.3265" style="stop-color:#31E500"/>
		<stop  offset="0.4796" style="stop-color:#00CBDB"/>
		<stop  offset="0.6786" style="stop-color:#710FFF"/>
		<stop  offset="0.8214" style="stop-color:#EA00CA"/>
		<stop  offset="1" style="stop-color:#F40006"/>
	</linearGradient>
	<path id="XMLID_906_" style="fill:url(#XMLID_00000114766893343266112730000015642543595643262621_);" d="M172.1,109.4
		c-14.8-32.3-17.9-68.5-17.9-68.5c-9.1,44.4-21.1,92.6-44.5,135.8c21.9,3.4,42.9-13.3,69.9-12.9c25.7,0.3,43.6,21.9,43.6,21.9
		C213.4,169.4,186.9,141.7,172.1,109.4z"/>
	
		<linearGradient id="XMLID_00000182517017220454159130000011569772015844381061_" gradientUnits="userSpaceOnUse" x1="-405.0372" y1="451.0409" x2="464.9406" y2="28.1069">
		<stop  offset="0" style="stop-color:#FF1919"/>
		<stop  offset="0.1786" style="stop-color:#FFB41E"/>
		<stop  offset="0.3265" style="stop-color:#31E500"/>
		<stop  offset="0.4796" style="stop-color:#00CBDB"/>
		<stop  offset="0.6786" style="stop-color:#710FFF"/>
		<stop  offset="0.8214" style="stop-color:#EA00CA"/>
		<stop  offset="1" style="stop-color:#F40006"/>
	</linearGradient>
	<path id="XMLID_907_" style="fill:url(#XMLID_00000182517017220454159130000011569772015844381061_);" d="M173.9,177
		c27.7-11.7,49.3,8.6,49.3,8.6c-2.7-4.4-6.6-9.7-11.2-15.6c-13-12.2-43.2-35.8-73.5-23.2c0,0-37,45.3-72.4,59.8
		C109.9,213.3,146.2,188.7,173.9,177z"/>
	
		<linearGradient id="XMLID_00000157304998557435901080000017059934549858522539_" gradientUnits="userSpaceOnUse" x1="-68.5661" y1="-39.4877" x2="242.8558" y2="153.6495">
		<stop  offset="0" style="stop-color:#FFFFFF"/>
		<stop  offset="0.2347" style="stop-color:#8A8A8A"/>
		<stop  offset="0.3827" style="stop-color:#797B7E"/>
		<stop  offset="0.5714" style="stop-color:#BCBDBF"/>
		<stop  offset="0.7041" style="stop-color:#F3F3F3"/>
		<stop  offset="0.9235" style="stop-color:#797B7E"/>
	</linearGradient>
	<path id="XMLID_908_" style="fill:url(#XMLID_00000157304998557435901080000017059934549858522539_);" d="M172.1,109.4
		c-14.8-32.3-17.9-68.5-17.9-68.5s4.3,53-15.7,106c0,0,20.5-9.3,46.8,3.7c20.3,10,33.6,28.5,37,33.7
		C211.9,167.9,186.5,140.8,172.1,109.4z"/>
	
		<linearGradient id="XMLID_00000123402905644833569020000018239785186197015191_" gradientUnits="userSpaceOnUse" x1="-166.8217" y1="370.8064" x2="449.9481" y2="70.9678">
		<stop  offset="0" style="stop-color:#FFFFFF"/>
		<stop  offset="0.2347" style="stop-color:#8A8A8A"/>
		<stop  offset="0.3827" style="stop-color:#797B7E"/>
		<stop  offset="0.5714" style="stop-color:#BCBDBF"/>
		<stop  offset="0.7041" style="stop-color:#F3F3F3"/>
		<stop  offset="0.9235" style="stop-color:#797B7E"/>
	</linearGradient>
	<path id="XMLID_909_" style="fill:url(#XMLID_00000123402905644833569020000018239785186197015191_);" d="M186.9,196.7
		c24.4-8.2,38.5,1.3,41.9,4.2c-17.7-16-36.7-16.2-70.6-1.9c-30,12.7-40.7,12.5-42.9,12.2C128.9,213.8,152.4,208.3,186.9,196.7z"/>
</g>
</svg>
