<?xml version="1.0" encoding="utf-8"?>
<!-- Generator: Adobe Illustrator 27.1.1, SVG Export Plug-In . SVG Version: 6.00 Build 0)  -->
<svg version="1.1" xmlns="http://www.w3.org/2000/svg" xmlns:xlink="http://www.w3.org/1999/xlink" x="0px" y="0px"
	 viewBox="0 0 1200 1200" style="enable-background:new 0 0 1200 1200;" xml:space="preserve">
<style type="text/css">
	.st0{fill:#222221;}
	.st1{font-family:'Anton-Regular';}
	.st2{font-size:90px;}
	.st3{letter-spacing:23;}
</style>
<g id="Background">
</g>
<g id="Graphic_Elements">
	<g>
		<g>
			<g>
				<path class="st0" d="M540.6,753.7c3.6,0.5,7.3,0.8,11,1.2c56.8-25.2,104.7-66.7,138.2-120.7c32.4-52.3,48.4-111.6,47-171.7
					l-61.9-61.9C700,531.3,650.6,669.7,540.6,753.7z"/>
				<path class="st0" d="M518.5,750.8c0.6,0.1,1.1,0.2,1.7,0.3c118-84.1,168.7-231,135.3-366L567.2,297
					C638,441,623.7,618.7,518.5,750.8z"/>
				<path class="st0" d="M817.6,535.2c-14.9,67.3-50.8,127.9-103.8,173.9c-15.5,13.5-32,25.3-49.3,35.4
					c86.6-25.2,156.6-90.2,188.9-173.6L817.6,535.2z"/>
				<path class="st0" d="M803.6,525.2l-50.9-50.9c-0.8,58.2-17.4,115.3-48.9,166.1c-30.8,49.6-73.3,89-123.6,115.6
					c0.1,0,0.2,0,0.2,0h0c11.6,0,23-0.7,34.2-2C709.9,715,782.8,630.1,803.6,525.2z"/>
				<path class="st0" d="M526,259.8l-60.9-60.9c-107.9,41.7-185,146.7-185,268.9v0c0,134.7,93.7,248.6,219.1,279.7
					C616.1,605.7,622.3,407.2,526,259.8z"/>
			</g>
			<path class="st0" d="M944,515.8c0-158.5-129.7-288.1-288.1-288.1h0c-36.3,0-71.1,6.8-103.2,19.2L924.8,619
				C937.2,586.9,944,552.1,944,515.8L944,515.8z"/>
		</g>
	</g>
</g>
<g id="Text">
	<text transform="matrix(1 0 0 1 366.8468 922.2273)" class="st1 st2 st3">COMPANY</text>
</g>
</svg>
