<?xml version="1.0" encoding="utf-8"?>
<!-- Generator: Adobe Illustrator 27.1.1, SVG Export Plug-In . SVG Version: 6.00 Build 0)  -->
<svg version="1.1" xmlns="http://www.w3.org/2000/svg" xmlns:xlink="http://www.w3.org/1999/xlink" x="0px" y="0px"
	 viewBox="0 0 500 500" style="enable-background:new 0 0 500 500;" xml:space="preserve">
<style type="text/css">
	.st0{fill:#3B4051;}
	.st1{fill:#FF2424;}
	.st2{font-family:'OriginTechDemoRegular';}
	.st3{font-size:41.7059px;}
</style>
<g id="BACKGROUND">
</g>
<g id="OBJECTS">
	<g>
		<polygon class="st0" points="287.5,151 245.9,102.7 204.3,151 245.9,199.3 240.6,205.5 222.5,184.4 204.3,205.5 245.9,253.7 
			287.5,205.5 245.9,157.2 251.2,151.1 269.4,172.1 		"/>
		<polygon class="st1" points="199,211.6 245.9,266.1 292.9,211.6 311,232.7 245.9,308.2 180.8,232.7 		"/>
		<polygon class="st0" points="199,157.2 180.8,178.2 199,199.3 217.1,178.2 		"/>
		<polygon class="st1" points="157.4,205.5 175.5,226.5 193.7,205.5 175.5,184.4 		"/>
		<polygon class="st0" points="274.7,178.2 292.9,157.2 311,178.2 292.9,199.3 		"/>
		<polygon class="st1" points="298.2,205.5 316.3,184.4 334.5,205.5 316.3,226.5 		"/>
		<g>
			<polygon class="st0" points="242.2,315.4 157.4,217 157.4,234.9 242.2,333.3 			"/>
			<polygon class="st0" points="249.7,315.4 249.7,333.3 334.5,234.9 334.5,217 			"/>
		</g>
	</g>
</g>
<g id="TEXTS">
	<text transform="matrix(1 0 0 1 129.3465 376.5246)"><tspan x="0" y="0" class="st0 st2 st3">name</tspan><tspan x="126.5" y="0" class="st1 st2 st3">logo</tspan></text>
</g>
</svg>
