<?xml version="1.0" encoding="utf-8"?>
<!-- Generator: Adobe Illustrator 27.1.1, SVG Export Plug-In . SVG Version: 6.00 Build 0)  -->
<svg version="1.1" id="Layer_1" xmlns="http://www.w3.org/2000/svg" xmlns:xlink="http://www.w3.org/1999/xlink" x="0px" y="0px"
	 viewBox="0 0 1200 1200" style="enable-background:new 0 0 1200 1200;" xml:space="preserve">
<style type="text/css">
	.st0{enable-background:new    ;}
</style>
<g id="Background">
</g>
<g id="Graphic_Elements">
	<g>
		<g>
			<path d="M682.6,400.4c8.5-8.5,13.7-20.3,13.7-33.2c0-26-21.1-47.1-47.1-47.1c-16.4,0-30.9,8.4-39.3,21.2
				c-2.2,2.2-189.6,233.2-191.4,235.9c-8.5,8.5-13.7,20.3-13.7,33.2c0,26,21.1,47.1,47.1,47.1c16.4,0,30.9-8.4,39.3-21.2
				C493.5,634,680.9,403,682.6,400.4z"/>
		</g>
		<g>
			<path d="M791.1,510c8.5-8.5,13.8-20.3,13.8-33.3c0-26-21.1-47.1-47.1-47.1c-16.4,0-30.9,8.4-39.3,21.2
				c-2.3,2.3-100.7,123.6-102.4,126.3c-8.5,8.5-13.8,20.3-13.8,33.3c0,26,21.1,47.1,47.1,47.1c16.4,0,30.9-8.4,39.3-21.2
				C690.9,634,789.3,512.7,791.1,510z"/>
		</g>
		<g>
			<g>
				<ellipse transform="matrix(0.2282 -0.9736 0.9736 0.2282 296.0042 1107.5911)" cx="846.6" cy="367.1" rx="47.1" ry="47.1"/>
			</g>
		</g>
		<g>
			<g>
				<ellipse cx="451.9" cy="367.1" rx="47.1" ry="47.1"/>
			</g>
		</g>
	</g>
</g>
<g id="Text">
	<g>
		<g class="st0">
			<path d="M514.6,875.8l4.5,0.5c-0.7,2.5-2,4.4-4,5.8s-4.4,2.1-7.4,2.1c-3.8,0-6.8-1.1-9-3.3c-2.2-2.2-3.3-5.3-3.3-9.2
				c0-4.1,1.1-7.3,3.4-9.5c2.2-2.3,5.1-3.4,8.7-3.4c3.5,0,6.3,1.1,8.5,3.3c2.2,2.2,3.3,5.3,3.3,9.4c0,0.2,0,0.6,0,1.1H500
				c0.2,2.7,1,4.7,2.4,6.2c1.4,1.4,3.2,2.1,5.4,2.1c1.6,0,3-0.4,4.1-1.2C513,878.8,513.9,877.5,514.6,875.8z M500.2,869.1h14.4
				c-0.2-2-0.7-3.6-1.7-4.6c-1.4-1.6-3.2-2.4-5.4-2.4c-2,0-3.7,0.6-5.1,1.9C501.1,865.3,500.4,867,500.2,869.1z"/>
			<path d="M526.9,876.4l4.3-0.6c0.2,1.6,0.9,2.9,2,3.8c1.1,0.9,2.7,1.3,4.7,1.3c2,0,3.5-0.4,4.5-1.2c1-0.8,1.5-1.7,1.5-2.7
				c0-0.9-0.4-1.7-1.3-2.2c-0.6-0.4-2.1-0.8-4.5-1.4c-3.2-0.8-5.4-1.4-6.7-2c-1.2-0.6-2.2-1.3-2.8-2.3c-0.6-1-1-2.1-1-3.3
				c0-1.1,0.3-2.1,0.8-3c0.5-0.9,1.2-1.7,2.2-2.3c0.7-0.5,1.6-0.9,2.8-1.2c1.2-0.3,2.4-0.5,3.8-0.5c2,0,3.8,0.3,5.3,0.8
				c1.5,0.6,2.7,1.3,3.4,2.2c0.7,0.9,1.2,2.2,1.5,3.8l-4.3,0.6c-0.2-1.3-0.8-2.2-1.7-2.9c-0.9-0.7-2.2-1.1-4-1.1
				c-2,0-3.4,0.3-4.3,0.9c-0.9,0.6-1.3,1.4-1.3,2.2c0,0.5,0.2,1,0.5,1.4c0.4,0.4,0.9,0.8,1.7,1.1c0.4,0.2,1.7,0.5,3.9,1.1
				c3.1,0.8,5.3,1.4,6.5,1.9c1.2,0.5,2.2,1.2,2.9,2.2c0.7,0.9,1,2.1,1,3.5c0,1.4-0.4,2.7-1.3,3.9c-0.9,1.2-2.1,2.2-3.7,2.8
				c-1.6,0.7-3.4,1-5.4,1c-3.4,0-5.9-0.7-7.7-2C528.5,880.9,527.3,878.9,526.9,876.4z"/>
			<path d="M567,879.9l0.6,3.6c-1.2,0.2-2.3,0.4-3.3,0.4c-1.6,0-2.8-0.2-3.7-0.7c-0.9-0.5-1.5-1.1-1.8-1.9c-0.4-0.8-0.5-2.4-0.5-4.9
				v-14h-3.2v-3.2h3.2v-6l4.4-2.5v8.5h4.4v3.2h-4.4v14.3c0,1.2,0.1,1.9,0.2,2.3c0.2,0.3,0.4,0.6,0.8,0.8c0.3,0.2,0.8,0.3,1.5,0.3
				C565.6,880.1,566.3,880,567,879.9z"/>
			<path d="M576.5,883.6v-4.7h5v4.7H576.5z"/>
			<path d="M632.7,879.7v4h-23.6c0-1,0.1-2,0.5-2.9c0.6-1.5,1.6-3,2.9-4.5c1.3-1.5,3.2-3.2,5.7-5.1c3.9-3,6.5-5.4,7.9-7.1
				c1.4-1.8,2-3.4,2-5c0-1.6-0.6-3-1.9-4.1c-1.2-1.1-2.9-1.7-4.9-1.7c-2.1,0-3.8,0.6-5.1,1.8c-1.3,1.2-1.9,2.8-1.9,5l-4.5-0.4
				c0.3-3.2,1.5-5.6,3.5-7.2s4.7-2.5,8.1-2.5c3.4,0,6.1,0.9,8.1,2.7c2,1.8,3,4,3,6.7c0,1.3-0.3,2.7-0.9,4c-0.6,1.3-1.6,2.7-2.9,4.1
				c-1.4,1.4-3.6,3.4-6.7,5.9c-2.6,2.1-4.3,3.5-5.1,4.2c-0.7,0.7-1.4,1.5-1.8,2.2H632.7z"/>
			<path d="M641.4,867c0-4,0.4-7.2,1.3-9.6s2.2-4.3,3.9-5.6c1.7-1.3,3.9-2,6.5-2c1.9,0,3.6,0.4,5,1.1c1.4,0.7,2.6,1.8,3.6,3.1
				c0.9,1.4,1.7,3,2.2,5s0.8,4.6,0.8,8c0,3.9-0.4,7.1-1.3,9.6c-0.9,2.4-2.1,4.3-3.9,5.6s-3.9,2-6.5,2c-3.4,0-6.1-1.2-8.1-3.5
				C642.6,877.9,641.4,873.4,641.4,867z M645.9,867c0,5.5,0.7,9.2,2.1,11c1.4,1.8,3.1,2.7,5.1,2.7s3.7-0.9,5.1-2.8s2.1-5.5,2.1-11
				c0-5.5-0.7-9.2-2.1-11c-1.4-1.8-3.1-2.7-5.1-2.7c-2,0-3.6,0.8-4.8,2.4C646.7,857.7,645.9,861.5,645.9,867z"/>
			<path d="M696.1,879.7v4h-23.6c0-1,0.1-2,0.5-2.9c0.6-1.5,1.6-3,2.9-4.5c1.3-1.5,3.2-3.2,5.7-5.1c3.9-3,6.5-5.4,7.9-7.1
				c1.4-1.8,2-3.4,2-5c0-1.6-0.6-3-1.9-4.1c-1.2-1.1-2.9-1.7-4.9-1.7c-2.1,0-3.8,0.6-5.1,1.8c-1.3,1.2-1.9,2.8-1.9,5l-4.5-0.4
				c0.3-3.2,1.5-5.6,3.5-7.2s4.7-2.5,8.1-2.5c3.4,0,6.1,0.9,8.1,2.7c2,1.8,3,4,3,6.7c0,1.3-0.3,2.7-0.9,4c-0.6,1.3-1.6,2.7-2.9,4.1
				c-1.4,1.4-3.6,3.4-6.7,5.9c-2.6,2.1-4.3,3.5-5.1,4.2c-0.7,0.7-1.4,1.5-1.8,2.2H696.1z"/>
			<path d="M721.2,883.6h-4.4v-26.3c-1.1,0.9-2.4,1.9-4.1,2.8c-1.7,0.9-3.2,1.7-4.6,2.1v-4c2.4-1.1,4.6-2.4,6.4-3.9
				c1.8-1.5,3.1-3,3.9-4.5h2.8V883.6z"/>
		</g>
	</g>
	<g class="st0">
		<path d="M297.3,764.8c0-20.3,16.9-37.3,37.2-37.3c9.3,0.1,18.3,4.4,24.9,11l-4.8,6.4c-5.2-5.3-12.5-9.1-20.4-9.1
			c-14.6,0-28.6,12.6-28.6,29c0,16.4,13.9,28.9,28.8,28.9c8.2,0,15.1-3.9,20.3-9l4.7,6.6c-6,6-14.2,10.6-24.8,10.6
			C314.4,801.9,297.3,785.4,297.3,764.8z"/>
		<path d="M380.4,764.8c0-20.5,16.8-37.3,37.2-37.3c20.5,0,37.2,16.8,37.2,37.3c0,20.4-16.8,37.1-37.3,37.1
			C397.1,801.9,380.4,785.2,380.4,764.8z M446.5,764.8c0-15.9-13-29-29-29c-15.9,0-28.9,13.1-28.9,29c0,15.9,13,28.9,28.9,28.9
			C433.5,793.7,446.5,780.7,446.5,764.8z"/>
		<path d="M555.1,727.2V801h-8.2v-49.1l-27.2,47.9h-0.1l-27.3-48V801h-8.2v-73.8h0.9l34.5,57.6l34.5-57.6H555.1z"/>
		<path d="M588.3,728.6h23c14,0,25.5,10.5,25.5,23.4c0,12.3-11.5,22.3-25.5,22.3h-14.8V801h-8.2V728.6z M628.6,751.8
			c0-8.4-7.8-15.2-17.3-15.2h-14.8v29.5l14.8,0C620.8,766.3,628.6,759.8,628.6,751.8z"/>
		<path d="M698.4,789.1h-39.5l-5.3,11.9h-8.8l33.5-73.5h0.9l33.5,73.5h-8.9L698.4,789.1z M695.2,782l-16.6-37.2L662,782H695.2z"/>
		<path d="M797.5,728.4v73.7h-0.4L747.4,747v54.1h-8.2v-73.6h0.4l49.6,55.1v-54.1H797.5z"/>
		<path d="M849.8,770.2l-25.6-41.6h9.2l20.5,32.5l20.5-32.5h9.2l-25.7,41.6V801h-8.1V770.2z"/>
	</g>
</g>
</svg>
