<?xml version="1.0" encoding="utf-8"?>
<!-- Generator: Adobe Illustrator 27.1.1, SVG Export Plug-In . SVG Version: 6.00 Build 0)  -->
<svg version="1.1" id="Camada_1" xmlns="http://www.w3.org/2000/svg" xmlns:xlink="http://www.w3.org/1999/xlink" x="0px" y="0px"
	 viewBox="0 0 1000 1000" style="enable-background:new 0 0 1000 1000;" xml:space="preserve">
<style type="text/css">
	.st0{fill:url(#SVGID_1_);}
	.st1{fill:url(#SVGID_00000000917165292719377850000010462304326377709462_);}
	.st2{fill:url(#SVGID_00000183967480633741374120000017264525437934948231_);}
	.st3{fill:none;stroke:#ED1C24;stroke-miterlimit:10;}
	.st4{fill:none;stroke:#00639E;stroke-miterlimit:10;}
	.st5{fill:none;stroke:#FFF200;stroke-miterlimit:10;}
	.st6{fill:#1D1714;}
</style>
<g>
	<g>
		<linearGradient id="SVGID_1_" gradientUnits="userSpaceOnUse" x1="697.6505" y1="346.9615" x2="498.7593" y2="321.769">
			<stop  offset="0" style="stop-color:#94070A"/>
			<stop  offset="0.2357" style="stop-color:#96070B"/>
			<stop  offset="0.3205" style="stop-color:#9B0A0D"/>
			<stop  offset="0.381" style="stop-color:#A30D11"/>
			<stop  offset="0.43" style="stop-color:#B01116"/>
			<stop  offset="0.4719" style="stop-color:#C1151B"/>
			<stop  offset="0.5083" style="stop-color:#D51920"/>
			<stop  offset="0.5261" style="stop-color:#E11B22"/>
			<stop  offset="0.5551" style="stop-color:#D71920"/>
			<stop  offset="0.607" style="stop-color:#CA171E"/>
			<stop  offset="0.6712" style="stop-color:#C1151B"/>
			<stop  offset="0.7606" style="stop-color:#BC141A"/>
			<stop  offset="1" style="stop-color:#BA141A"/>
		</linearGradient>
		<polygon class="st0" points="582.1,428.7 524.8,329.5 524.8,164.1 725.3,511.4 		"/>
		
			<linearGradient id="SVGID_00000040564859606917881440000015879104005480232367_" gradientUnits="userSpaceOnUse" x1="446.7267" y1="624.9929" x2="624.9139" y2="369.729">
			<stop  offset="0" style="stop-color:#002561"/>
			<stop  offset="0.205" style="stop-color:#002762"/>
			<stop  offset="0.2789" style="stop-color:#002B66"/>
			<stop  offset="0.3315" style="stop-color:#00326C"/>
			<stop  offset="0.3741" style="stop-color:#003C76"/>
			<stop  offset="0.4106" style="stop-color:#004983"/>
			<stop  offset="0.4429" style="stop-color:#005A94"/>
			<stop  offset="0.4721" style="stop-color:#006EAA"/>
			<stop  offset="0.4989" style="stop-color:#0088C6"/>
			<stop  offset="0.5228" style="stop-color:#00A6E7"/>
			<stop  offset="0.5261" style="stop-color:#00AEEF"/>
			<stop  offset="0.5417" style="stop-color:#009FDF"/>
			<stop  offset="0.5756" style="stop-color:#008CCA"/>
			<stop  offset="0.6144" style="stop-color:#007CB9"/>
			<stop  offset="0.6597" style="stop-color:#0071AD"/>
			<stop  offset="0.7153" style="stop-color:#0069A4"/>
			<stop  offset="0.7927" style="stop-color:#00659F"/>
			<stop  offset="1" style="stop-color:#00639E"/>
		</linearGradient>
		<polygon style="fill:url(#SVGID_00000040564859606917881440000015879104005480232367_);" points="318.4,521.6 461.6,438.9 
			576.2,438.9 719.4,521.6 		"/>
		
			<linearGradient id="SVGID_00000163053357096781056440000007663642318324178332_" gradientUnits="userSpaceOnUse" x1="381.9812" y1="270.5045" x2="465.3705" y2="452.8198">
			<stop  offset="0" style="stop-color:#FAA61A"/>
			<stop  offset="0.2357" style="stop-color:#FAA71B"/>
			<stop  offset="0.3205" style="stop-color:#FBAC1E"/>
			<stop  offset="0.381" style="stop-color:#FDB525"/>
			<stop  offset="0.43" style="stop-color:#FEC230"/>
			<stop  offset="0.4719" style="stop-color:#FFD23F"/>
			<stop  offset="0.5083" style="stop-color:#FFE653"/>
			<stop  offset="0.5261" style="stop-color:#FFF45F"/>
			<stop  offset="0.5328" style="stop-color:#FFF15A"/>
			<stop  offset="0.5753" style="stop-color:#FFE53F"/>
			<stop  offset="0.6248" style="stop-color:#FFDD27"/>
			<stop  offset="0.6861" style="stop-color:#FFD810"/>
			<stop  offset="0.7714" style="stop-color:#FFD500"/>
			<stop  offset="1" style="stop-color:#FFD400"/>
		</linearGradient>
		<polygon style="fill:url(#SVGID_00000163053357096781056440000007663642318324178332_);" points="513,164.1 513,329.5 
			455.7,428.7 312.5,511.4 		"/>
		<polygon class="st3" points="586.4,424.4 530.7,327.9 530.7,186.2 709.1,495.3 		"/>
		<polygon class="st4" points="340.4,515.7 463.2,444.8 574.6,444.8 697.3,515.7 		"/>
		<polygon class="st5" points="507.1,186.2 507.1,327.9 451.4,424.4 328.6,495.3 		"/>
	</g>
	<g>
		<path class="st6" d="M221.6,567h35.9c9.6,0,17.2,2.8,22,7.5c3.5,3.6,5.4,8.1,5.4,13.5v0.2c0,11-6.7,16.6-13.4,19.5
			c10,3,18.1,8.8,18.1,20.4v0.2c0,14.5-12.2,23-30.6,23h-37.5V567z M256,604.6c11.4,0,19.4-5.2,19.4-15.1v-0.2
			c0-8.3-6.6-13.7-18.7-13.7H231v29H256z M259.3,642.8c12.8,0,20.7-5.7,20.7-15.1v-0.2c0-9.2-7.7-14.5-22.4-14.5H231v29.8H259.3z"/>
		<path class="st6" d="M307.3,616.1v-49h9.5v48.4c0,18.2,9.6,28.4,25.8,28.4c15.5,0,25.4-9.4,25.4-27.8v-49h9.5v48.3
			c0,24.6-14.1,37.3-35.2,37.3C321.5,652.7,307.3,639.9,307.3,616.1z"/>
		<path class="st6" d="M394.5,639.1l5.9-7c8.8,8,17.2,11.9,28.9,11.9c11.3,0,18.8-6,18.8-14.3v-0.2c0-7.8-4.2-12.3-21.9-16
			c-19.4-4.2-28.3-10.5-28.3-24.3v-0.2c0-13.3,11.7-23,27.7-23c12.3,0,21.1,3.5,29.6,10.4l-5.5,7.3c-7.8-6.4-15.7-9.2-24.3-9.2
			c-11,0-18,6-18,13.6v0.2c0,8,4.3,12.4,22.9,16.4c18.8,4.1,27.5,11,27.5,23.9v0.2c0,14.5-12,23.9-28.8,23.9
			C415.6,652.6,404.6,648.1,394.5,639.1z"/>
		<path class="st6" d="M478,567h9.5v84.3H478V567z"/>
		<path class="st6" d="M512.2,567h8.9l53.1,67.6V567h9.3v84.3h-7.6l-54.5-69.2v69.2h-9.3V567z"/>
		<path class="st6" d="M607.4,567h61v8.7h-51.4v28.8h46v8.7h-46v29.5h52v8.7h-61.6V567z"/>
		<path class="st6" d="M682.5,639.1l5.9-7c8.8,8,17.2,11.9,28.9,11.9c11.3,0,18.8-6,18.8-14.3v-0.2c0-7.8-4.2-12.3-21.9-16
			c-19.4-4.2-28.3-10.5-28.3-24.3v-0.2c0-13.3,11.7-23,27.7-23c12.3,0,21.1,3.5,29.6,10.4l-5.5,7.3c-7.8-6.4-15.7-9.2-24.3-9.2
			c-11,0-18,6-18,13.6v0.2c0,8,4.3,12.4,22.9,16.4c18.8,4.1,27.5,11,27.5,23.9v0.2c0,14.5-12,23.9-28.8,23.9
			C703.6,652.6,692.7,648.1,682.5,639.1z"/>
		<path class="st6" d="M758.4,639.1l5.9-7c8.8,8,17.2,11.9,28.9,11.9c11.3,0,18.8-6,18.8-14.3v-0.2c0-7.8-4.2-12.3-21.9-16
			c-19.4-4.2-28.3-10.5-28.3-24.3v-0.2c0-13.3,11.7-23,27.7-23c12.3,0,21.1,3.5,29.6,10.4l-5.5,7.3c-7.8-6.4-15.7-9.2-24.3-9.2
			c-11,0-18,6-18,13.6v0.2c0,8,4.3,12.4,22.9,16.4c18.8,4.1,27.5,11,27.5,23.9v0.2c0,14.5-12,23.9-28.8,23.9
			C779.5,652.6,768.6,648.1,758.4,639.1z"/>
	</g>
</g>
</svg>
