<?xml version="1.0" encoding="utf-8"?>
<!-- Generator: Adobe Illustrator 27.1.1, SVG Export Plug-In . SVG Version: 6.00 Build 0)  -->
<svg version="1.1" id="Layer_1" xmlns="http://www.w3.org/2000/svg" xmlns:xlink="http://www.w3.org/1999/xlink" x="0px" y="0px"
	 viewBox="0 0 1300 1300" style="enable-background:new 0 0 1300 1300;" xml:space="preserve">
<style type="text/css">
	.st0{fill:url(#XMLID_00000091734463440653021140000016140337649827737791_);}
	.st1{fill:url(#XMLID_00000075135664921008469440000010495211545446865329_);}
	.st2{fill:#00AE4D;}
	.st3{fill:#322B29;}
	.st4{fill:url(#XMLID_00000076563727387471295750000002743696905971186109_);}
	.st5{fill:url(#XMLID_00000096739245046404479490000014902650020855586207_);}
	.st6{fill:#1D1714;}
</style>
<g>
	<g id="XMLID_1_">
		<g id="XMLID_7_">
			
				<linearGradient id="XMLID_00000111874344707066638990000013306683031982646446_" gradientUnits="userSpaceOnUse" x1="662.4579" y1="503.5982" x2="662.4579" y2="183.0833">
				<stop  offset="0" style="stop-color:#1D1714"/>
				<stop  offset="0.6223" style="stop-color:#3B3331"/>
				<stop  offset="1" style="stop-color:#47403D"/>
			</linearGradient>
			<path id="XMLID_11_" style="fill:url(#XMLID_00000111874344707066638990000013306683031982646446_);" d="M675.9,188.7
				c-7.4-7.5-19.5-7.5-26.9,0l-83.2,84.6l-198,198c-11.9,11.9-3.5,32.2,13.3,32.2h137.4c5,0,9.8-2,13.3-5.5l117.2-117.2
				c7.4-7.4,19.3-7.4,26.7,0L793,498.1c3.5,3.5,8.3,5.5,13.3,5.5h137.4c16.8,0,25.2-20.3,13.3-32.2l-198-198L675.9,188.7z"/>
			
				<linearGradient id="XMLID_00000109752570074472448290000005885276896334248087_" gradientUnits="userSpaceOnUse" x1="662.4579" y1="839.0219" x2="662.4579" y2="518.5359">
				<stop  offset="0" style="stop-color:#204F23"/>
				<stop  offset="1" style="stop-color:#00AE4D"/>
			</linearGradient>
			<path id="XMLID_12_" style="fill:url(#XMLID_00000109752570074472448290000005885276896334248087_);" d="M759.1,748.8L957,550.9
				c11.9-11.9,3.5-32.3-13.4-32.3H806.4c-5,0-9.8,2-13.4,5.5L675.8,641.2c-7.4,7.4-19.4,7.4-26.8,0L531.9,524.1
				c-3.6-3.6-8.4-5.5-13.4-5.5H381.3c-16.9,0-25.3,20.4-13.4,32.3l197.9,197.9l83.1,84.6c7.4,7.6,19.6,7.6,27,0L759.1,748.8z"/>
		</g>
		<g id="XMLID_27_">
			<path id="XMLID_43_" class="st2" d="M381.3,518.5c-5.1,0-9.5,1.9-12.7,4.9l16.1,44.2l36.6,36.6l-31.2-85.6H381.3z"/>
			<polygon id="XMLID_44_" class="st2" points="407.8,518.5 449.1,632.1 485.7,668.6 431.1,518.5 			"/>
			<polygon id="XMLID_45_" class="st2" points="448.8,518.5 513.6,696.5 550.2,733.1 472.1,518.5 			"/>
			<polygon id="XMLID_46_" class="st2" points="489.8,518.5 578.2,761.3 615.1,798.9 513.1,518.5 			"/>
			<path id="XMLID_47_" class="st2" d="M533.4,525.5l110,302.1l5.6,5.7c5.7,5.8,14.2,7.1,21.2,4L569.9,562.1L533.4,525.5z"/>
			<polygon id="XMLID_48_" class="st2" points="597.8,590 683.6,825.6 700.6,808.3 634.4,626.5 			"/>
			<path id="XMLID_49_" class="st2" d="M675.8,641.2c-4.5,4.5-10.6,6.2-16.4,5.3l54.1,148.6l17-17.3l-51-140.2L675.8,641.2z"/>
			<polygon id="XMLID_50_" class="st2" points="692.4,624.6 743.4,764.7 759.1,748.8 760.4,747.4 709.5,607.6 			"/>
			<polygon id="XMLID_51_" class="st2" points="722.5,594.6 773.4,734.4 790.5,717.4 739.5,577.5 			"/>
			<polygon id="XMLID_52_" class="st2" points="752.6,564.5 803.5,704.4 820.5,687.3 769.6,547.5 			"/>
			<path id="XMLID_53_" class="st2" d="M793,524.1l-10.4,10.4l50.9,139.9l17-17l-50.1-137.8C797.7,520.4,795.1,522,793,524.1z"/>
			<polygon id="XMLID_54_" class="st2" points="817.8,518.5 863.6,644.2 880.6,627.2 841.1,518.5 			"/>
			<polygon id="XMLID_55_" class="st2" points="858.8,518.5 893.6,614.2 910.7,597.1 882.1,518.5 			"/>
			<polygon id="XMLID_56_" class="st2" points="899.8,518.5 923.7,584.1 940.8,567.1 923.1,518.5 			"/>
			<path id="XMLID_57_" class="st2" d="M943.6,518.5h-2.8l12.9,35.5l3.2-3.2C968.9,538.9,960.5,518.5,943.6,518.5z"/>
		</g>
		<g id="XMLID_3_">
			<path id="XMLID_23_" class="st3" d="M943.5,503.6c5.1,0,9.5-1.9,12.7-4.9l-16.1-44.2L903.6,418l31.2,85.6H943.5z"/>
			<polygon id="XMLID_22_" class="st3" points="917,503.6 875.7,390 839.1,353.5 893.7,503.6 			"/>
			<polygon id="XMLID_21_" class="st3" points="876,503.6 811.2,325.6 774.7,289 852.7,503.6 			"/>
			<polygon id="XMLID_20_" class="st3" points="835,503.6 746.6,260.8 709.7,223.2 811.7,503.6 			"/>
			<path id="XMLID_19_" class="st3" d="M791.4,496.6l-110-302.1l-5.6-5.7c-5.7-5.8-14.2-7.1-21.2-4L754.9,460L791.4,496.6z"/>
			<polygon id="XMLID_18_" class="st3" points="727,432.1 641.2,196.5 624.3,213.8 690.4,395.6 			"/>
			<path id="XMLID_17_" class="st3" d="M649,380.9c4.5-4.5,10.6-6.2,16.4-5.3L611.3,227l-17,17.3l51,140.2L649,380.9z"/>
			<polygon id="XMLID_16_" class="st3" points="632.4,397.5 581.4,257.4 565.7,273.4 564.4,274.7 615.3,414.5 			"/>
			<polygon id="XMLID_15_" class="st3" points="602.3,427.6 551.4,287.7 534.4,304.7 585.3,444.6 			"/>
			<polygon id="XMLID_14_" class="st3" points="572.3,457.6 521.3,317.7 504.3,334.8 555.2,474.7 			"/>
			<path id="XMLID_13_" class="st3" d="M531.8,498l10.4-10.4l-50.9-139.9l-17,17l50.1,137.8C527.2,501.7,529.7,500.1,531.8,498z"/>
			<polygon id="XMLID_9_" class="st3" points="507,503.6 461.2,377.9 444.2,394.9 483.7,503.6 			"/>
			<polygon id="XMLID_8_" class="st3" points="466,503.6 431.2,407.9 414.1,425 442.7,503.6 			"/>
			<polygon id="XMLID_6_" class="st3" points="425,503.6 401.1,438 384.1,455 401.7,503.6 			"/>
			<path id="XMLID_4_" class="st3" d="M381.2,503.6h2.8L371,468l-3.2,3.2C355.9,483.2,364.4,503.6,381.2,503.6z"/>
		</g>
		<g id="XMLID_24_">
			
				<linearGradient id="XMLID_00000041975133759766811600000007397135082369320099_" gradientUnits="userSpaceOnUse" x1="662.458" y1="597.8741" x2="662.458" y2="511.067">
				<stop  offset="0" style="stop-color:#47403D"/>
				<stop  offset="0.3777" style="stop-color:#3B3331"/>
				<stop  offset="1" style="stop-color:#1D1714"/>
			</linearGradient>
			<path id="XMLID_26_" style="fill:url(#XMLID_00000041975133759766811600000007397135082369320099_);" d="M662.5,597.9
				c47.9,0,86.8-38.9,86.8-86.8H575.7C575.7,559,614.5,597.9,662.5,597.9z"/>
			
				<linearGradient id="XMLID_00000088835508664761099330000004282015407418355867_" gradientUnits="userSpaceOnUse" x1="662.458" y1="511.067" x2="662.458" y2="424.2599">
				<stop  offset="0" style="stop-color:#00AE4D"/>
				<stop  offset="1" style="stop-color:#204F23"/>
			</linearGradient>
			<path id="XMLID_28_" style="fill:url(#XMLID_00000088835508664761099330000004282015407418355867_);" d="M662.5,424.3
				c-47.9,0-86.8,38.9-86.8,86.8h173.6C749.3,463.1,710.4,424.3,662.5,424.3z"/>
		</g>
	</g>
	<g id="XMLID_80_">
		<path id="XMLID_81_" class="st6" d="M237.7,886v90.3h56.2v19.1h-76.8V886H237.7z"/>
		<path id="XMLID_83_" class="st6" d="M412.6,941.3c-0.3,28.3-17.6,56.5-56.1,56.5s-56.2-27.6-56.2-56.4c0-28.7,18.4-57.6,56.2-57.6
			C394.2,883.9,412.9,912.7,412.6,941.3z M320.6,941.8c0.5,18,10.2,37.2,35.9,37.2s35.5-19.4,35.8-37.3c0.3-18.4-10-39-35.8-39
			S320.2,923.4,320.6,941.8z"/>
		<path id="XMLID_86_" class="st6" d="M509,912.7c-7.3-7-18.3-10.9-27.8-10.9c-23.4,0-37.6,17.8-37.6,40.3c0,18,10.5,36.5,37.6,36.5
			c8.6,0,16.1-1.9,24.7-8.7v-19.4h-28v-18.4h46.9v46.1c-10.8,12.3-24.4,19.7-43.6,19.7c-41.1,0-57.8-27-57.8-55.8
			c0-30.8,19.2-59.2,57.8-59.2c14.7,0,29.4,5.6,40.6,16.7L509,912.7z"/>
		<path id="XMLID_88_" class="st6" d="M649.1,941.3c-0.3,28.3-17.6,56.5-56.1,56.5c-38.4,0-56.2-27.6-56.2-56.4
			c0-28.7,18.4-57.6,56.2-57.6C630.6,883.9,649.4,912.7,649.1,941.3z M557.1,941.8c0.5,18,10.2,37.2,35.9,37.2
			c25.8,0,35.5-19.4,35.8-37.3c0.3-18.4-10-39-35.8-39C567.2,902.6,556.6,923.4,557.1,941.8z"/>
		<path id="XMLID_91_" class="st2" d="M724,904.8h-34.7V886c31.5,0,58.3,0,90,0v18.7h-34.7v90.6H724V904.8z"/>
		<path id="XMLID_93_" class="st2" d="M873.3,995.4h-81.8c0-36.4,0-72.9,0-109.3h81.8v20h-61.4v25.1h59.2v19.2h-59.2v24.7h61.4
			V995.4z"/>
		<path id="XMLID_95_" class="st2" d="M963.4,886h22.6v0.9l-37,53.1l38.1,54.7v0.6h-23.1l-28-41.1l-28,41.1H885v-0.6l38-54.7
			L886.1,887V886h22.6l27.3,40.8L963.4,886z"/>
		<path id="XMLID_97_" class="st2" d="M1027.6,904.8h-34.7V886c31.5,0,58.3,0,90,0v18.7h-34.7v90.6h-20.6V904.8z"/>
	</g>
</g>
</svg>
