<?xml version="1.0" encoding="utf-8"?>
<!-- Generator: Adobe Illustrator 27.1.1, SVG Export Plug-In . SVG Version: 6.00 Build 0)  -->
<svg version="1.1" id="Layer_1" xmlns="http://www.w3.org/2000/svg" xmlns:xlink="http://www.w3.org/1999/xlink" x="0px" y="0px"
	 viewBox="0 0 4000 4000" style="enable-background:new 0 0 4000 4000;" xml:space="preserve">
<style type="text/css">
	
		.st0{clip-path:url(#SVGID_00000156576586853113984110000002060997059717062313_);fill:url(#SVGID_00000041296070164912683980000009682584171636617659_);}
	
		.st1{clip-path:url(#SVGID_00000137845111245787209830000011326976797892047535_);fill:url(#SVGID_00000122707692861812153380000007387451881592308392_);}
	
		.st2{clip-path:url(#SVGID_00000143579836161022520090000011935082436469434303_);fill:url(#SVGID_00000085251576410791540360000018363204134030823041_);}
	
		.st3{clip-path:url(#SVGID_00000032645973359730498740000012286443390276203677_);fill:url(#SVGID_00000002370227979248417230000010992075814428272006_);}
	
		.st4{clip-path:url(#SVGID_00000082366100732421798610000010826154570566503336_);fill:url(#SVGID_00000138554428120791656610000016341572225155967105_);}
	
		.st5{clip-path:url(#SVGID_00000036957706347600784420000009383249789805282460_);fill:url(#SVGID_00000057110100764129369660000016172285246193217183_);}
	
		.st6{clip-path:url(#SVGID_00000181767863120905297200000014083186549435225741_);fill:url(#SVGID_00000047021167653218346660000011293990334654418095_);}
	
		.st7{clip-path:url(#SVGID_00000168818671307587113350000016909062686665578376_);fill:url(#SVGID_00000168084611236751492610000016501100009571807370_);}
	
		.st8{clip-path:url(#SVGID_00000033350039286380495850000010966745336985371805_);fill:url(#SVGID_00000124147823386701077930000018303767138759254160_);}
	
		.st9{clip-path:url(#SVGID_00000093861721221655485230000004552396664318689695_);fill:url(#SVGID_00000145770175667132664830000011273699065138994360_);}
	
		.st10{clip-path:url(#SVGID_00000148653395135408473140000005649467414322286246_);fill:url(#SVGID_00000011748623555444148780000008258455678402432158_);}
</style>
<g>
	<defs>
		<path id="SVGID_1_" d="M2303.1,1633.2c0,0-375.8,238-421.3,627.6C2008.8,2099.6,2320.7,1902.5,2303.1,1633.2"/>
	</defs>
	<clipPath id="SVGID_00000041292917001423964130000006790015002970771851_">
		<use xlink:href="#SVGID_1_"  style="overflow:visible;"/>
	</clipPath>
	
		<linearGradient id="SVGID_00000119838383712577436810000017998035816703420057_" gradientUnits="userSpaceOnUse" x1="2100.3977" y1="1949.5638" x2="1926.2957" y2="2459.6218">
		<stop  offset="0" style="stop-color:#004B80"/>
		<stop  offset="1" style="stop-color:#29C4FF"/>
	</linearGradient>
	
		<rect x="1881.9" y="1633.2" style="clip-path:url(#SVGID_00000041292917001423964130000006790015002970771851_);fill:url(#SVGID_00000119838383712577436810000017998035816703420057_);" width="438.8" height="627.6"/>
</g>
<g>
	<defs>
		<path id="SVGID_00000048499277791891020410000018297149612897407137_" d="M2174.9,1674.6c0,0-405.5,182.8-505.3,562.1
			C1817.9,2094.9,2154.4,1943.7,2174.9,1674.6"/>
	</defs>
	<clipPath id="SVGID_00000023994185355912228380000012610298332103544204_">
		<use xlink:href="#SVGID_00000048499277791891020410000018297149612897407137_"  style="overflow:visible;"/>
	</clipPath>
	
		<linearGradient id="SVGID_00000135689027429985336690000017128789155118569403_" gradientUnits="userSpaceOnUse" x1="1915.8173" y1="1991.1003" x2="1843.9313" y2="2385.1387">
		<stop  offset="0" style="stop-color:#005998"/>
		<stop  offset="1" style="stop-color:#29C4FF"/>
	</linearGradient>
	
		<rect x="1669.6" y="1674.6" style="clip-path:url(#SVGID_00000023994185355912228380000012610298332103544204_);fill:url(#SVGID_00000135689027429985336690000017128789155118569403_);" width="505.3" height="562.1"/>
</g>
<g>
	<defs>
		<path id="SVGID_00000126295269680942590720000011012319622368772277_" d="M2044.5,1738.1c0,0-430.9,110.3-594.5,466.8
			C1620.5,2090.8,1978,1999.7,2044.5,1738.1"/>
	</defs>
	<clipPath id="SVGID_00000000209682158345808040000017493103727398139020_">
		<use xlink:href="#SVGID_00000126295269680942590720000011012319622368772277_"  style="overflow:visible;"/>
	</clipPath>
	
		<linearGradient id="SVGID_00000000201878190983143860000017480700079563252129_" gradientUnits="userSpaceOnUse" x1="1767.4093" y1="1896.0233" x2="1641.7172" y2="2367.5381">
		<stop  offset="0" style="stop-color:#005998"/>
		<stop  offset="1" style="stop-color:#29C4FF"/>
	</linearGradient>
	
		<rect x="1450" y="1738.1" style="clip-path:url(#SVGID_00000000209682158345808040000017493103727398139020_);fill:url(#SVGID_00000000201878190983143860000017480700079563252129_);" width="594.5" height="466.8"/>
</g>
<g>
	<defs>
		<path id="SVGID_00000096775205801524530740000007656096516605821856_" d="M1960.7,1723.6c0,0-510.2,46.6-761.4,422.1
			C1414,2047.1,1837.2,2008.8,1960.7,1723.6"/>
	</defs>
	<clipPath id="SVGID_00000176003975490469379490000002288120826541298870_">
		<use xlink:href="#SVGID_00000096775205801524530740000007656096516605821856_"  style="overflow:visible;"/>
	</clipPath>
	
		<linearGradient id="SVGID_00000138570247448049847250000018324314570909842339_" gradientUnits="userSpaceOnUse" x1="1649.5693" y1="1776.5353" x2="1395.9495" y2="2352.6958">
		<stop  offset="0" style="stop-color:#005998"/>
		<stop  offset="1" style="stop-color:#29C4FF"/>
	</linearGradient>
	
		<rect x="1199.3" y="1723.6" style="clip-path:url(#SVGID_00000176003975490469379490000002288120826541298870_);fill:url(#SVGID_00000138570247448049847250000018324314570909842339_);" width="761.4" height="422.1"/>
</g>
<g>
	<defs>
		<path id="SVGID_00000134232898665052171220000001095697978615970696_" d="M1864.8,1697.7c0,0-569.5-41.6-914.1,325.5
			C1204.8,1953.9,1677.1,1988.9,1864.8,1697.7"/>
	</defs>
	<clipPath id="SVGID_00000079488307206744810030000007246183004016272812_">
		<use xlink:href="#SVGID_00000134232898665052171220000001095697978615970696_"  style="overflow:visible;"/>
	</clipPath>
	
		<linearGradient id="SVGID_00000064316035188897892970000009709870393074086031_" gradientUnits="userSpaceOnUse" x1="1508.4465" y1="1733.6877" x2="1202.8201" y2="2055.4021">
		<stop  offset="0" style="stop-color:#0067AF"/>
		<stop  offset="1" style="stop-color:#29C4FF"/>
	</linearGradient>
	
		<rect x="950.7" y="1656.1" style="clip-path:url(#SVGID_00000079488307206744810030000007246183004016272812_);fill:url(#SVGID_00000064316035188897892970000009709870393074086031_);" width="914.1" height="367.2"/>
</g>
<g>
	<defs>
		<path id="SVGID_00000099655737182685712750000002890085933057312672_" d="M1850.7,1638.3c0,0-552.2-145.5-958.4,152.1
			C1154.8,1768.9,1612.7,1890.1,1850.7,1638.3"/>
	</defs>
	<clipPath id="SVGID_00000156549352969030947250000013213332836139052976_">
		<use xlink:href="#SVGID_00000099655737182685712750000002890085933057312672_"  style="overflow:visible;"/>
	</clipPath>
	
		<linearGradient id="SVGID_00000101099315754198747990000017953973666320802698_" gradientUnits="userSpaceOnUse" x1="1552.98" y1="1556.7865" x2="1136.0488" y2="1866.2531">
		<stop  offset="0" style="stop-color:#0067AF"/>
		<stop  offset="1" style="stop-color:#29C4FF"/>
	</linearGradient>
	
		<rect x="892.3" y="1492.8" style="clip-path:url(#SVGID_00000156549352969030947250000013213332836139052976_);fill:url(#SVGID_00000101099315754198747990000017953973666320802698_);" width="958.4" height="397.3"/>
</g>
<g>
	<defs>
		<path id="SVGID_00000026145188549988936340000014454114153291565953_" d="M2137.2,2009c0,0-330,269.3-230.6,763
			C1997.3,2524.7,2265.7,2330.8,2137.2,2009"/>
	</defs>
	<clipPath id="SVGID_00000076571877840733087550000009947691336416873656_">
		<use xlink:href="#SVGID_00000026145188549988936340000014454114153291565953_"  style="overflow:visible;"/>
	</clipPath>
	
		<linearGradient id="SVGID_00000111913370146141109830000016390279138248202687_" gradientUnits="userSpaceOnUse" x1="2027.7142" y1="2384.717" x2="2411.2544" y2="2639.6484">
		<stop  offset="0" style="stop-color:#005EA0"/>
		<stop  offset="1" style="stop-color:#29C4FF"/>
	</linearGradient>
	
		<rect x="1807.2" y="2009" style="clip-path:url(#SVGID_00000076571877840733087550000009947691336416873656_);fill:url(#SVGID_00000111913370146141109830000016390279138248202687_);" width="458.5" height="763"/>
</g>
<g>
	<defs>
		<path id="SVGID_00000055673849164629378800000007432148209222760368_" d="M2137.2,2009c0,0-226.2,360.9,26.3,796.6
			C2170.1,2542.3,2362.1,2272.6,2137.2,2009"/>
	</defs>
	<clipPath id="SVGID_00000111154792443863019690000004406855032433251213_">
		<use xlink:href="#SVGID_00000055673849164629378800000007432148209222760368_"  style="overflow:visible;"/>
	</clipPath>
	
		<linearGradient id="SVGID_00000039103605992600960530000004836442461180991904_" gradientUnits="userSpaceOnUse" x1="2019.9515" y1="2293.0806" x2="2493.022" y2="2756.7207">
		<stop  offset="0" style="stop-color:#0062A7"/>
		<stop  offset="1" style="stop-color:#29C4FF"/>
	</linearGradient>
	
		<rect x="1911" y="2009" style="clip-path:url(#SVGID_00000111154792443863019690000004406855032433251213_);fill:url(#SVGID_00000039103605992600960530000004836442461180991904_);" width="451.1" height="796.6"/>
</g>
<g>
	<defs>
		<path id="SVGID_00000020397887087127980270000011797287140720382876_" d="M2137.2,2009c0,0-98.5,414.4,280.4,746.1
			C2339.4,2503.6,2434.7,2186.5,2137.2,2009"/>
	</defs>
	<clipPath id="SVGID_00000089576009997448964600000003598351640163818651_">
		<use xlink:href="#SVGID_00000020397887087127980270000011797287140720382876_"  style="overflow:visible;"/>
	</clipPath>
	
		<linearGradient id="SVGID_00000122709557342027305090000014871641050473337509_" gradientUnits="userSpaceOnUse" x1="2020.3358" y1="2256.218" x2="2463.1248" y2="2513.7742">
		<stop  offset="0" style="stop-color:#0067AF"/>
		<stop  offset="1" style="stop-color:#29C4FF"/>
	</linearGradient>
	
		<rect x="2038.7" y="2009" style="clip-path:url(#SVGID_00000089576009997448964600000003598351640163818651_);fill:url(#SVGID_00000122709557342027305090000014871641050473337509_);" width="396.1" height="746.1"/>
</g>
<g>
	<defs>
		<path id="SVGID_00000076564244090899466070000001218431751292683672_" d="M2312.5,1581.1c-59.3,89.9-96.2,166.6-120.1,242.3
			c-19.4,61.2-30.3,121.8-37.7,188.2c-4.5,40.4-7.7,82.9-10.8,129c-2.5,38-4.9,78.3-7.8,122c331.3-29.9,512.2-419.8,539.5-621.2
			c0,0,39.4-134.1,169.1-125.4c0,0-35-48.1-129.8-43.7c0,0-123.9-195.4-357.2,43.7C2341.3,1538.5,2326.3,1560.2,2312.5,1581.1"/>
	</defs>
	<clipPath id="SVGID_00000073679542110532111380000006310791618401583803_">
		<use xlink:href="#SVGID_00000076564244090899466070000001218431751292683672_"  style="overflow:visible;"/>
	</clipPath>
	
		<linearGradient id="SVGID_00000161618135314305556620000004156294225311870344_" gradientUnits="userSpaceOnUse" x1="2486.8376" y1="1793.7007" x2="2569.6602" y2="1234.017">
		<stop  offset="0" style="stop-color:#0067AF"/>
		<stop  offset="1" style="stop-color:#29C4FF"/>
	</linearGradient>
	
		<rect x="2136.1" y="1276.9" style="clip-path:url(#SVGID_00000073679542110532111380000006310791618401583803_);fill:url(#SVGID_00000161618135314305556620000004156294225311870344_);" width="708.7" height="985.7"/>
</g>
<g>
	<defs>
		<path id="SVGID_00000117647399869708986110000009069425601089731737_" d="M2416.4,2127.6c9-56.8,53.6-428.6-103.8-546.5
			c-290.3-217.4-1034,27.6-1213.2-261.9c196.1,839,913.4-30,1036.7,943.4c1-0.1,1.9-0.2,2.9-0.3c30.7-3,60.1-9,88.2-17.8
			c27.4-8.5,53.5-19.5,78.4-32.6c39.6-20.9,79.9-43.3,109.4-77C2415.8,2134,2416.2,2131.4,2416.4,2127.6"/>
	</defs>
	<clipPath id="SVGID_00000026155511994381969510000016934948190816584354_">
		<use xlink:href="#SVGID_00000117647399869708986110000009069425601089731737_"  style="overflow:visible;"/>
	</clipPath>
	
		<linearGradient id="SVGID_00000125562762766206923780000012701684852066217376_" gradientUnits="userSpaceOnUse" x1="2419.0813" y1="2302.8486" x2="1351.7203" y2="1416.2992">
		<stop  offset="0" style="stop-color:#0067AF"/>
		<stop  offset="1" style="stop-color:#29C4FF"/>
	</linearGradient>
	
		<rect x="1099.3" y="1289.2" style="clip-path:url(#SVGID_00000026155511994381969510000016934948190816584354_);fill:url(#SVGID_00000125562762766206923780000012701684852066217376_);" width="1370.7" height="973.4"/>
</g>
</svg>
