<?xml version="1.0" encoding="utf-8"?>
<!-- Generator: Adobe Illustrator 27.1.1, SVG Export Plug-In . SVG Version: 6.00 Build 0)  -->
<svg version="1.1" id="Layer_1" xmlns="http://www.w3.org/2000/svg" xmlns:xlink="http://www.w3.org/1999/xlink" x="0px" y="0px"
	 viewBox="0 0 595.3 841.9" style="enable-background:new 0 0 595.3 841.9;" xml:space="preserve">
<path d="M94,378.8c0.9-6.9,1.7-13.8,2.9-20.7c13.4-76,68.8-136.3,144.2-153.4c74.3-16.8,137.9,4.2,189,60.6
	c27.3,30.1,42.6,66.2,46.1,106.6c5.4,61.3-14.1,114-58.1,157.1c-29.8,29.1-66,45.9-107.2,51.7c-4.4,0.6-8.9,1.1-13.3,1.6
	c-8,0-16,0-24,0c-0.8-0.2-1.6-0.6-2.5-0.6c-16.2-1.2-32.1-4.1-47.4-9.8C154.1,546.1,111.9,496.7,97,424.1c-1.4-7-2-14.3-3-21.4
	C94,394.8,94,386.8,94,378.8z M285.7,214.5C190.9,214.4,111,290,109.4,388.2c-1.5,98,76.9,178.2,175.2,178.9
	c95.9,0.6,175.9-76.3,177.2-173.9C463.2,295.6,384.9,214.7,285.7,214.5z"/>
<path d="M278,337.1c0-17.5,0-34.9,0-52.4c0-5.1,2.2-8,6.4-8.7c4.2-0.7,8.1,2.1,8.7,6.3c0.2,1.5,0.1,3,0.1,4.5c0,32.3,0,64.6,0,96.9
	c0,2.7,0.7,4.6,2.7,6.5c18.1,17.9,36,35.9,54,53.9c0.8,0.8,1.6,1.6,2.4,2.4c3,3.5,3,7.7,0.1,10.8c-3,3-7.3,3.1-10.8,0.1
	c-0.7-0.6-1.3-1.2-1.9-1.8c-19.2-19.2-38.4-38.5-57.7-57.7c-2.8-2.8-4-5.7-3.9-9.6C278.1,371.3,278,354.2,278,337.1z"/>
</svg>
