<?xml version="1.0" encoding="utf-8"?>
<!-- Generator: Adobe Illustrator 27.1.1, SVG Export Plug-In . SVG Version: 6.00 Build 0)  -->
<svg version="1.1" id="Layer_1" xmlns="http://www.w3.org/2000/svg" xmlns:xlink="http://www.w3.org/1999/xlink" x="0px" y="0px"
	 viewBox="0 0 595.3 841.9" style="enable-background:new 0 0 595.3 841.9;" xml:space="preserve">
<path d="M316.9,575.6c-5.4-1.6-8.8-5.3-11.8-9.8c-23.9-36.3-47.9-72.6-71.8-108.9c-10.3-15.7-17.8-32.5-21.2-51.1
	c-2.9-15.6-1.6-30.9,2.7-46c6.5-22.4,19-40.8,37.3-55.2c13.5-10.7,28.7-18,45.7-21.1c37.6-6.9,70.5,2.9,97.9,29.5
	c17.3,16.8,27.4,37.5,31,61.4c3.8,25.4-2.2,48.9-14.7,70.6c-9.7,16.9-20.9,33-31.6,49.3c-15.6,23.9-31.4,47.6-47.1,71.5
	c-3,4.5-6.5,8.2-11.8,9.8C319.9,575.6,318.4,575.6,316.9,575.6z M319.2,563.4c1.2-1.6,2.1-2.7,2.8-3.9
	c13.1-19.8,26.2-39.6,39.2-59.5c13.2-20.1,26.5-40.1,39.2-60.5c8.1-13,12.8-27.4,14.2-42.7c2.2-25.5-5.2-48.5-21.7-67.9
	c-22.7-26.8-52.1-38-87-33.8c-15.5,1.9-29.6,7.7-42.2,16.8c-17.1,12.3-29.1,28.5-35.6,48.4c-4.2,12.8-5.8,25.9-4,39.4
	c2.5,18.2,9.7,34.6,19.7,49.8c24.2,36.9,48.6,73.7,72.9,110.5C317.3,561,318.1,562,319.2,563.4z"/>
<path d="M319.3,447.5c-31.7,0.1-57.6-25.7-57.6-57.5c0-31.7,25.9-57.6,57.6-57.6c31.6,0,57.4,25.8,57.5,57.4
	C376.8,421.6,351.1,447.4,319.3,447.5z M319.5,345.2c-24.2-0.4-44.7,19.6-45.1,44.2c-0.5,24.3,19.5,44.9,44,45.3
	c24.8,0.4,45.2-19.4,45.6-44.3C364.3,366,344.4,345.7,319.5,345.2z"/>
</svg>
