<?xml version="1.0" encoding="utf-8"?>
<!-- Generator: Adobe Illustrator 27.1.1, SVG Export Plug-In . SVG Version: 6.00 Build 0)  -->
<svg version="1.1" id="Layer_1" xmlns="http://www.w3.org/2000/svg" xmlns:xlink="http://www.w3.org/1999/xlink" x="0px" y="0px"
	 viewBox="0 0 595.3 841.9" style="enable-background:new 0 0 595.3 841.9;" xml:space="preserve">
<path d="M88.1,450.2c1.5-7.5,3.1-15,4.4-22.6c6.1-34.5,12.1-69,18.2-103.4c1-5.7,3.4-7.3,9.2-6.3c8.2,1.4,16.4,2.9,24.7,4.4
	c7,1.2,8.4,3.1,7.2,10.1c-0.2,1.3-0.4,2.7-0.7,4.5c8.8,1.4,17.3,4.5,26.7,1.1c0-1.2,0-2.7,0-4.1c0-27.4,0-54.9,0-82.3
	c0-16,9.9-25.8,26-25.9c12,0,23.9,0,35.9,0c1.2,0,2.4,0,4,0c0-4.1,0-7.8,0-11.5c0.1-10.7,7.7-18.4,18.4-18.4
	c11.7-0.1,23.5-0.1,35.2,0c10.5,0.1,18.1,7.8,18.2,18.3c0.1,3.7,0,7.4,0,11.7c1.6,0,2.9,0,4.2,0c12.2,0,24.4,0,36.7,0
	c14.7,0,25,10.2,25,24.9c0,27.7,0,55.4,0,83.1c0,1.5,0,2.9,0,4.3c9.2,3.4,17.7,0.4,26.8-1c-0.4-2.3-0.8-4.5-1.2-6.6
	c-0.6-4,1-6.7,4.9-7.5c9.5-1.8,19.1-3.6,28.7-5.1c4.8-0.8,7,1.1,7.9,6.3c3.1,17.3,6.1,34.6,9.1,51.9c4.4,24.8,8.7,49.6,13.1,74.4
	c1,5.7-0.5,8-6.3,9.1c-8.9,1.6-17.9,3.2-26.9,4.8c-4.7,0.8-6.4-0.7-8.6-7.6c-3.2-0.4-4.8,1.1-6.6,3.9c-4.8,7.2-10.3,14-15.4,21
	c-0.9,1.2-2,2.6-2.2,4c-1.3,15.3-11.6,24.2-26.8,23.2c-0.7-0.1-1.5-0.1-2.7-0.2c-0.6,7.5-3.4,14-9.4,18.7s-12.8,5.9-20.4,4.5
	c-0.6,7.7-3.3,14.2-9.5,18.9c-6,4.6-12.8,6-20.3,4.4c-0.3,1.7-0.5,3.3-0.9,4.8c-2,9.4-7.8,15.3-16.8,18.3c-0.9,0.3-1.9,0.6-2.8,0.9
	c-2.5,0-5,0-7.5,0c-3.2-1.4-6.3-2.8-9.6-4c-1.5-0.5-3.3-0.9-4.7-0.5c-13.6,4.2-26.7-2.7-30.8-16.5c-0.2-0.7-0.6-1.3-0.9-2
	c-7.4,4.4-15,5.1-22.7,1.8c-7.7-3.4-12-9.7-13.9-17.8c-9.7,5.4-19.1,5.6-27.6-1.1c-10.6-8.3-11.8-19.2-6.5-31.1
	c-10.5-4.2-16.4-11.5-16.9-22.7c-0.1-1.3-1.3-2.5-2.1-3.6c-5.2-7-10.6-13.7-15.4-20.9c-1.8-2.7-3.4-4.2-6.5-3.9
	c-2.1,6.9-3.8,8.5-8.5,7.6c-8.7-1.5-17.4-2.9-26.1-4.8c-2.7-0.6-5-2.6-7.5-3.9C88.1,453.7,88.1,452,88.1,450.2z M283.5,397.9
	c-6.8,1.4-13.3,2.6-19.7,4.1c-1.3,0.3-2.7,1.3-3.4,2.4c-3.2,4.5-6,9.2-9.2,13.6c-7.4,10.3-17.5,14.7-30,12.6
	c-19.4-3.3-24.1-20.1-14.5-32.5c6.5-8.3,12.1-17.4,17.6-26.4c5.1-8.3,11.8-14.2,21.1-17.5c6.1-2.2,12-5.1,18.7-8
	c-8.4-4.4-16.5-6.3-25.1-5.1c-18.5,2.6-37,5.4-55.4,8.5c-10.2,1.7-20.2,2.6-30.3-0.2c-1.4-0.4-2.8-0.3-4.4-0.5
	c-5.6,31.9-11.2,63.4-16.7,94.8c0.5,0.4,0.6,0.6,0.8,0.6c0.7,0.2,1.4,0.5,2.2,0.5c5.7,0.2,9.2,2.8,11.4,8.3
	c2.5,6.6,6.8,12.4,11.6,17c9.7-8.2,18.9-16.4,28.6-24c13.8-10.8,34-3.4,37.6,13.8c0.9,4.1,0.1,8.6,0.1,13.1
	c11.7,3,18.2,10.9,19.3,23.4c14.4-0.8,23.5,5.8,27.4,19.7c1.1-0.6,2-1,2.9-1.5c14.2-6.7,30.8,1.4,33.3,16.9c0.8,5.1,3.5,7.5,7.2,9.7
	c6.1,3.6,13.1,2.3,16.8-3.2c3.7-5.6,2.3-12.7-3.6-16.7c-4.3-3-8.7-5.8-13.1-8.7c-5.5-3.7-11.1-7.2-16.5-11c-3-2.1-3.6-5.4-1.8-8.2
	c1.8-2.7,5.1-3.5,8.2-1.8c0.9,0.5,1.7,1.1,2.5,1.6c12.4,8.2,24.7,16.4,37.1,24.5c7.9,5.1,17.6,1,18.9-8.1c0.7-5.4-1.7-9.3-6.2-12.3
	c-12.8-8.4-25.6-16.9-38.3-25.4c-3.7-2.5-4.5-5.9-2.4-8.9c2-2.9,5.3-3.4,8.9-1.1c4,2.5,7.9,5.2,11.9,7.8
	c12.4,8.2,24.7,16.4,37.1,24.5c8.2,5.3,18.3,0.5,18.9-8.8c0.3-5.1-2.1-8.8-6.3-11.5c-18.7-12.3-37.4-24.7-56.1-37.2
	c-4.9-3.3-9.7-6.4-15.6-7.6c-2.3-0.5-4.5-1.6-6.6-2.6C296.4,420.7,288.2,411,283.5,397.9z M410.5,349c-1.6,0.2-3,0.4-4.3,0.6
	c-5.3,0.8-10.7,2.7-15.8,2c-19.6-2.5-39.2-5.7-58.8-8.8c-10.9-1.8-21.7-3.1-32.3,1.6c-17.7,7.7-35.6,15-53.2,22.9
	c-3.4,1.5-6.7,4.2-8.8,7.1c-7.6,10.7-14.6,21.7-21.8,32.6c-2.9,4.5-1.9,7.9,3,10.3c7.9,4,17.4,1.7,22.6-5.7
	c3.8-5.3,7.3-10.7,10.8-16.2c1.6-2.6,3.7-4.1,6.8-4.7c8.7-1.6,17.3-3.5,26-5.3c5.8-1.2,8,0.1,9.5,5.9c5.5,20.5,25.2,32.6,46.1,28.6
	c8.9-1.7,16-6.6,23.3-11.4c4-2.6,7.5-2.3,9.6,0.7c2.2,3.1,1,6.6-3.1,9.3c-7.9,5.3-15.9,10.7-26.2,12.7c1.5,1.1,2.3,1.8,3.2,2.4
	c13.7,9.1,27.5,18.1,41.2,27.3c4.4,3,8.6,6.2,13.1,9.6c5.2-5.4,9.6-12,12.7-19.4c1.2-3,3.1-5,6.5-5.4c2.2-0.2,4.3-0.8,6.8-1.3
	C421.7,412.5,416.1,380.9,410.5,349z M315.7,285.4c0-2.2-0.1-4,0-5.8c0.2-3.6,2.4-5.9,6-5.9c8-0.1,16-0.1,23.9,0
	c3.6,0.1,5.7,2.4,6,5.9c0.1,1.9,0,3.9,0,5.9c10.1-0.3,17.7-7.7,17.9-17.4c0.1-5.4,0-10.7,0-16.1c0-9.9-4.5-14.3-14.4-14.3
	c-50.2,0-100.5,0-150.7,0c-1,0-2,0-3,0c-6.4,0.3-11.3,5.1-11.5,11.5c-0.2,6.5-0.2,13,0,19.4c0.4,9.4,8.6,17,17.9,16.6
	c0-1.8-0.1-3.7,0-5.5c0.2-3.7,2.4-6,6.2-6.1c7.9-0.1,15.7-0.1,23.6,0c3.7,0.1,5.9,2.4,6.1,6.1c0.1,1.8,0,3.7,0,5.6
	C267.8,285.4,291.5,285.4,315.7,285.4z M243.8,297.7c0,2.1,0.1,4,0,5.8c-0.2,3.5-2.4,5.9-6,5.9c-8,0.1-16,0.1-23.9,0
	c-3.6-0.1-5.7-2.4-6-5.9c-0.1-1.9,0-3.9,0-4.9c-6.4-2.2-12.1-4.1-17.7-6c0,14.2,0,29,0,43.9c7.7-1.2,15-2.3,22.4-3.5
	c8.6-1.3,17.2-2.8,25.9-3.8c12.1-1.5,23.2,2.1,33.8,7.4c5.1,2.5,9.6,3.3,14.6,0.1c2.1-1.3,4.5-2,6.8-3c8.7-3.8,17.9-5.6,27.4-4.5
	c8.8,1,17.5,2.6,26.2,3.9c7.3,1.1,14.6,2.2,22,3.3c0-15,0-29.6,0-43.7c-5.8,1.9-11.5,3.8-17.7,5.9c0,1,0.1,2.9,0,4.7
	c-0.2,3.8-2.4,6.1-6.1,6.1c-7.9,0.1-15.7,0.1-23.6,0c-3.8-0.1-6-2.4-6.2-6.1c-0.1-1.8,0-3.7,0-5.7
	C291.6,297.7,268,297.7,243.8,297.7z M118.7,451.4c6.9-39.4,13.8-78.5,20.8-117.9c-6-1.1-11.7-2.1-17.7-3.1
	c-7,39.5-13.8,78.6-20.8,118C107.1,449.4,112.6,450.4,118.7,451.4z M419.9,333.5c7,39.5,13.9,78.6,20.8,117.9
	c6-1.1,11.6-2.1,17.7-3.1c-6.9-39.4-13.8-78.6-20.8-118C431.6,331.5,426,332.5,419.9,333.5z M232.2,497.6c-0.9-5.3-3-9-7.2-11.1
	c-4.5-2.2-9-2-13,1.3c-9.2,7.6-18.4,15.3-27.5,23.1c-5.2,4.5-5.6,11.7-1.4,16.8c4.2,5,11.4,5.8,16.7,1.5
	c9.3-7.6,18.5-15.2,27.4-23.2C229.5,503.9,230.6,500.4,232.2,497.6z M213.3,467.1c-0.3-6.6-2.4-10.2-6.7-12.3c-4.6-2.2-9-1.8-13,1.5
	c-7.7,6.3-15.4,12.7-22.9,19.2c-5.1,4.4-5.7,11.7-1.6,16.8c4.2,5.1,11.3,6.1,16.7,1.7c8-6.4,15.9-12.9,23.4-19.8
	C211.4,472.1,212.4,468.6,213.3,467.1z M296.4,538.2c-0.4-6.7-2.5-10.4-7-12.5c-4.6-2.2-9-1.5-12.9,1.7c-6.1,5-12.1,10-18,15.1
	c-5.2,4.4-5.9,11.7-1.8,16.7c4.2,5.2,11.5,6.1,17,1.7c6.2-5,12.4-10,18.2-15.4C294.2,543.3,295.4,539.9,296.4,538.2z M246,508.5
	c-1.3,0.5-3.9,1.1-5.9,2.6c-6.5,5.2-12.9,10.5-19.2,16c-4.8,4.3-5.1,11.3-1.2,16.2c3.9,4.9,11,6.1,16.1,2.2c6.9-5.3,13.5-11,20-16.8
	c3.7-3.3,4.4-8.6,2.4-13.1C256.1,511.1,252.4,508.9,246,508.5z M303.7,225.6c0-4.2,0.1-8.1,0-11.9c-0.1-3.5-2.4-5.9-6-5.9
	c-12-0.1-23.9-0.1-35.9,0c-3.3,0-5.6,1.9-5.9,5.1c-0.4,4.2-0.1,8.4-0.1,12.7C271.9,225.6,287.5,225.6,303.7,225.6z M220,297.3
	c4.2,0,7.9,0,11.6,0c0-4,0-7.7,0-11.5c-4,0-7.7,0-11.6,0C220,289.7,220,293.4,220,297.3z M327.8,297.4c4.1,0,7.8,0,11.6,0
	c0-4,0-7.7,0-11.5c-4,0-7.8,0-11.6,0C327.8,289.8,327.8,293.4,327.8,297.4z M286.9,565.6c5.1,2.2,9.7,1.5,13.1-2
	c3.2-3.2,4.4-7,3.1-11.8C297.6,556.5,292.4,560.9,286.9,565.6z"/>
</svg>
