<?xml version="1.0" encoding="utf-8"?>
<!-- Generator: Adobe Illustrator 27.1.1, SVG Export Plug-In . SVG Version: 6.00 Build 0)  -->
<svg version="1.1" id="Layer_1" xmlns="http://www.w3.org/2000/svg" xmlns:xlink="http://www.w3.org/1999/xlink" x="0px" y="0px"
	 viewBox="0 0 595.3 841.9" style="enable-background:new 0 0 595.3 841.9;" xml:space="preserve">
<path d="M182.9,345.6c0.7-7,1.3-13.6,1.9-20.1c3.2-35.8,6.4-71.5,9.6-107.3c0.2-2.2,0.3-4.5,0.6-6.7c1.5-9.8,8.8-15.6,18.7-14.9
	c12.3,1,24.6,2.2,36.9,3.3c23.7,2.1,47.4,4.2,71.2,6.4c23.3,2.1,46.7,4.7,70.1,6.1c10.1,0.6,17.4,4.2,23.5,11.9
	c3.8,4.8,8.3,8.9,12.7,13.2c3.7,3.6,4.8,7.8,4.3,12.9c-3,31.7-5.8,63.3-8.6,95c-0.1,1.1,0,2.2,0,3.9c3.2,0,6.3,0,9.5,0
	c10.6,0.1,16.6,6.2,16.7,16.8c0,20.8,0.1,41.7-0.1,62.5c0,2.6,0.6,4.5,2.6,6.2c1.5,1.3,2.9,2.7,4.2,4.2c4.1,4.7,4.4,11.1,0.2,15.7
	c-1.8,2-2,3.4-0.7,5.5c0.6,1,1.1,2.3,1.4,3.4c0.6,2.1,1.7,2.9,4,3c6.4,0.3,10.9,4.8,11.2,11.3c0.3,6.7,0.3,13.5,0,20.2
	c-0.3,6.5-4.8,11-11.2,11.3c-2.3,0.1-3.4,0.9-4,3c-0.2,1-0.6,1.9-1.1,2.8c-1.6,2.5-1.3,4.4,0.8,6.8c3.8,4.3,3.4,10.7-0.6,15
	c-4.6,4.9-9.4,9.7-14.3,14.3c-5.4,5-11.5,4.4-18.2-1.5c-2.6,1-5.4,2-8.1,3.3c-0.7,0.4-1.3,1.6-1.4,2.6c-0.8,7.7-5.3,11.9-13,12
	c-6.1,0-12.2,0.1-18.3,0c-6.2-0.1-11.2-4.2-11.7-10.4c-0.2-3.4-1.8-4.4-4.5-5.3c-1.8-0.6-3.4-1.4-4.1-1.7c-3.8,1.6-6.7,3.4-9.9,4.1
	c-4.4,0.9-8.3-0.8-10.9-4.4c-5.2-7.1-11.9-8.7-20.6-8.6c-50.3,0.4-100.6,0.3-150.8,0.1c-5.6,0-11.2-0.7-16.7-1.9
	c-14.3-3.2-20.9-11.7-20.9-26.3c0-36.2,0.1-72.4,0.1-108.5c0-14.5,0-28.9,0.1-43.4c0-10.8,4.9-15.7,15.8-15.7
	C160.4,345.6,171.4,345.6,182.9,345.6z M411.3,349.3c2.7-30.1,5.3-59.6,8-89.1c-1.4-0.2-2.2-0.5-3.1-0.5c-6.7-0.6-13.4-1.3-20.1-1.8
	c-8.7-0.6-12.9-5.2-12.2-13.9c0.5-6.6,1.1-13.1,1.7-19.9c-7.8-0.7-15.2-1.4-22.6-2.1c-26.5-2.4-52.9-4.7-79.4-7.1
	c-23.3-2.1-46.7-4.3-70-6.3c-4.4-0.4-6.4,1.2-6.7,5.5c-2.3,25.7-4.6,51.4-6.9,77.1c-2.1,23.7-4.3,47.4-6.4,71.2
	c-0.9,9.7-1.7,19.3-2.6,29.2c1.3,0.1,2.2,0.2,3.2,0.2c34.8,0,69.6,0,104.4,0.1c2.4,0,3.5-0.9,4.6-2.8c5.6-10.2,11.4-20.2,16.9-30.4
	c3.5-6.5,8.4-9.5,15.9-9.4c23.6,0.3,47.2,0.1,70.7,0.1C408,349.3,409.5,349.3,411.3,349.3z M437.7,421.8c0.1-1.4,0.2-2.6,0.2-3.9
	c0-17,0-33.9,0-50.9c0-5.2-0.5-5.8-5.8-5.8c-32.1,0-64.1,0-96.2-0.1c-2.8,0-4.3,1-5.6,3.3c-6.2,11.2-12.7,22.3-18.7,33.7
	c-2.2,4.2-5.1,5.7-9.8,5.7c-41-0.1-82.1-0.1-123.1-0.1c-1.4,0-2.9,0-4.5,0c0,42.2,0,83.9,0,125.7c50.8,0,101.3,0,151,0
	c1.9-3.4,3.7-6.3,5.2-9.3c0.4-0.7,0.5-1.9,0.2-2.7c-0.5-1.5-1.5-2.9-1.8-4.5c-0.6-2.6-2.1-3.4-4.7-3.6c-5.9-0.3-10.4-5.1-10.5-11.1
	c-0.2-6.7-0.1-13.5,0-20.2c0.1-6.4,4.6-11.1,11-11.5c2.4-0.1,3.6-0.9,4.2-3.2c0.3-1.3,0.9-2.6,1.6-3.8c0.9-1.7,0.9-2.9-0.5-4.6
	c-4.8-5.4-4.4-11.7,0.7-17c4.1-4.2,8.3-8.3,12.4-12.4c5.5-5.5,11.6-5.6,17.7-0.8c0.8,0.6,2.4,0.8,3.5,0.5c1.4-0.3,2.7-1.3,4.1-1.6
	c2.4-0.6,3.2-1.9,3.4-4.4c0.5-6.4,5.3-10.8,11.7-10.9c6.6-0.1,13.2-0.1,19.8,0c5.8,0.1,11,4.4,11.3,9.9c0.2,3.6,1.6,5.1,4.7,5.8
	c1.2,0.3,2.2,1.1,3.4,1.4c0.8,0.2,2.1,0.2,2.6-0.2C428.6,421.9,432.8,421.1,437.7,421.8z M338,447.7c1.3,0.9,2.6,1.7,3.7,2.7
	c3.9,3.7,4,5.3,1.5,10.2c-1.4,2.7-3.1,5.3-3.6,8.2c-1.4,7.6-5.5,11.1-13.3,9.9c-0.2,0-0.4,0.2-0.6,0.3c0,6.3,0,12.5,0,18.8
	c1.5,0,2.6,0,3.8,0c5.8-0.2,7.2,0.9,8.9,6.3c0.9,2.8,1.9,5.7,3.2,8.4c4.1,8.9,4.2,8.9-2.6,16.2c-0.2,0.2-0.2,0.4,0.1-0.3
	c4.6,4.8,9,9.3,13.6,14c1.1-1.2,2.4-2.6,3.7-3.9c2.3-2.3,4.8-2.6,7.8-1.3c4.9,2.2,9.8,4.2,14.8,6.1c2.9,1.1,4.4,3.1,4.4,6.2
	c0,2,0,3.9,0,6c6.7,0,13,0,19.4,0c0-1.7,0-3,0-4.4c0-5.2,1.1-6.5,6.2-8.3c4-1.4,7.9-3,11.7-4.9c4.9-2.4,6.5-2.3,10.5,1.7
	c1,1,2.1,2,2.6,2.4c4.8-4.6,9.3-8.9,14.3-13.6c-1.1-0.9-2.2-1.7-3.2-2.6c-4-3.8-4.1-5.5-1.6-10.5c1.9-4,3.7-8.2,5-12.4
	c1.2-3.6,3.4-5.4,7.1-5.4c1.8,0,3.6,0,5.4,0c0-6.7,0-12.8,0-19.2c-1.6,0-2.8,0-4.1,0c-5.5,0.1-7-1-8.7-6.2c-0.9-2.7-1.5-5.7-3.1-8
	c-4.6-6.6-4-12.2,2.6-17c0.1-0.1,0.1-0.2-0.2,0.5c-4.6-4.8-8.9-9.4-13.7-14.4c-0.7,0.9-1.4,2-2.2,2.9c-4.1,4.3-5.6,4.3-10.8,1.8
	c-4-1.9-8.2-3.6-12.4-5c-3.5-1.2-5.4-3.3-5.3-7.1c0-1.8,0-3.6,0-5.4c-6.7,0-12.9,0-19.3,0c0,2.2,0,4.2,0,6.1c0,3.2-1.6,5-4.5,6.2
	c-5,2-9.9,4-14.8,6.1c-2.9,1.3-5.4,1.1-7.6-1.1c-1.5-1.5-2.7-3.2-3.8-4.6C347.6,438.4,343.1,442.7,338,447.7z M181.8,357.6
	c-11,0-21.4,0.1-31.9-0.1c-3.4-0.1-4.5,1-4.5,4.5c0,50.4-0.1,100.8-0.1,151.1c0,10.2,5.8,15.7,16.5,15.3c0-1.4,0-2.9,0-4.4
	c0-38.7,0-77.3,0-116c0-1.7,0-3.5,0.2-5.2c0.9-6.4,5.8-10.8,12.2-11c1.4-0.1,2.9,0,4.4,0C179.8,380.2,180.8,369.2,181.8,357.6z
	 M420.9,248.1c-5.8-8-20.5-22.2-23.4-22.7c-0.6,6.7-1.2,13.5-1.8,20.4C404.2,246.6,412.2,247.3,420.9,248.1z"/>
<path d="M245.2,267.4c26.8,2.4,55.1,5,83.4,7.6c13.8,1.2,27.6,2.4,41.3,3.7c4.8,0.5,7.1,3,6.6,6.8c-0.4,3.7-3.5,5.5-8.1,5.1
	c-26.7-2.4-53.4-4.8-80.1-7.2c-14.6-1.3-29.3-2.6-43.9-3.9c-0.7-0.1-1.5-0.2-2.2-0.3c-4.1-0.7-6.2-3.2-5.7-6.9
	C236.9,268.9,239.7,267,245.2,267.4z"/>
<path d="M365.3,324.5c-20.5-1.8-41-3.6-61.5-5.5c-21.1-1.9-42.2-3.7-63.3-5.8c-2.1-0.2-4.7-1.3-6-2.8c-1-1.3-1.3-4.4-0.4-5.8
	c1.1-1.6,3.7-3.2,5.7-3.2c7,0.2,13.9,1,20.9,1.6c27.1,2.4,54.1,4.8,81.2,7.3c8.1,0.7,16.1,1.5,24.2,2.2c5,0.4,7.6,2.7,7.4,6.5
	C373.3,323,370.5,324.8,365.3,324.5z"/>
<path d="M393.2,449.3c21.6,0.1,38.9,17.5,38.7,39.1c-0.1,21.4-17.6,38.7-39,38.6c-21.3-0.1-38.8-17.6-38.8-38.8
	C354.1,466.8,371.7,449.2,393.2,449.3z M393,461.3c-14.8,0.1-26.9,12.1-26.9,26.9c0,14.7,12.1,26.9,26.9,26.9
	c15,0.1,27-12.1,27-27.1C419.9,473.1,407.9,461.2,393,461.3z"/>
</svg>
