<?xml version="1.0" encoding="utf-8"?>
<!-- Generator: Adobe Illustrator 27.1.1, SVG Export Plug-In . SVG Version: 6.00 Build 0)  -->
<svg version="1.1" id="Layer_1" xmlns="http://www.w3.org/2000/svg" xmlns:xlink="http://www.w3.org/1999/xlink" x="0px" y="0px"
	 viewBox="0 0 595.3 841.9" style="enable-background:new 0 0 595.3 841.9;" xml:space="preserve">
<path d="M134.1,584.4c-5-2.3-6.9-6.1-6.8-11.6c0.2-22.7-0.2-45.4,0.1-68.1c0.6-39.2,17.8-69,51.2-89.5c2-1.2,2.8-2.4,2.7-4.7
	c-0.1-2.3-0.2-4.8,0.3-7.1c1.2-6,6.4-10.3,13-10.4c10.4-0.2,20.7-0.1,31.1,0c4.2,0,8.1,1.5,10.3,5.1c1.8,2.9,3.9,3.3,6.8,3.1
	c1.7-0.1,3.5,0,5.7,0c0-6.6,0.1-12.9-0.1-19.2c0-0.9-1-1.9-1.8-2.7c-7.4-7.9-12.5-17-15.6-27.4c-0.6-2.1-1.5-2.9-3.7-3.3
	c-11.4-2.2-19.6-12-19.8-23.5c-0.1-6.4-0.1-12.7,0-19.1c0.1-7.3,4.4-13.1,11.4-14.8c2.4-0.6,2.8-1.7,2.8-3.9
	c-0.1-15.5-0.1-30.9,0-46.4c0.2-22.9,17.4-39.8,40.2-39.7c4.4,0,6.6,1.8,6.8,5.2c0.2,3.6-2.2,5.9-6.7,5.7
	c-13.3-0.6-26.1,8.3-28.6,22c-1.3,7.1-0.9,14.6-1.2,22.2c15.8,0,31,0,46.6,0c-0.5-1-0.9-2-1.4-2.9c-8.8-16.8-1.7-31.7,17.1-34.5
	c6-0.9,12.6-0.3,18.4,1.2c13.4,3.6,19.1,16.4,13.8,29.3c-0.9,2.3-2.1,4.4-3.3,6.9c15.5,0,30.7,0,46.3,0c-0.2-8.4,1.1-16.7-1.5-24.9
	c-3.7-11.5-14.1-19.1-26.6-19.2c-16.2-0.2-32.4,0-48.7,0c-1.2,0-2.5,0.1-3.7-0.1c-3.4-0.4-5.4-2.5-5.3-5.6c0.1-3,2.3-5.1,5.7-5.2
	c3.1-0.1,6.2,0,9.4,0c13.5,0,26.9,0,40.4,0c24.7,0,41.2,16.5,41.2,41.3c0,15.8,0,31.7,0,47.7c1.1,0.3,2,0.5,3,0.7
	c7.9,1.6,12.6,7.2,12.7,15.2c0.1,6.2,0.1,12.5,0,18.7c-0.3,12.3-8.9,22.2-21.1,23.9c-2.5,0.3-3.6,1.4-4.2,3.7
	c-2.9,10.1-8.2,18.9-15.2,26.8c-1.1,1.2-1.9,3.2-2,4.9c-0.2,5.6-0.1,11.2-0.1,17.2c3.3,0,6.1,0.1,8.9-0.1c0.9-0.1,2-0.9,2.5-1.7
	c2.9-4.3,7-6.3,12-6.4c10-0.1,20-0.1,29.9,0c8.5,0.1,14.1,5.7,13.7,14.3c-0.2,4.7,1.3,7.2,5.4,9.6c5.6,3.3,10.7,7.7,15.8,11.9
	c2.9,2.4,3.1,5.9,0.9,8.2c-2.2,2.3-5.2,2.2-8-0.1c-4.3-3.5-8.6-7-13.6-11c0,35.9,0,70.7,0,105.8c14.1,0,28.1,0,42.1,0
	c0.1-0.2,0.4-0.4,0.4-0.6c0-18.8,2-37.8-4.6-55.9c-2.2-5.9-5-11.6-7.7-17.4c-1.9-4-1.6-6.8,1.3-8.5c2.9-1.8,6.1-0.6,8.3,3.2
	c8.6,15,13.5,31.1,13.7,48.4c0.3,24.4,0,48.9,0.1,73.4c0,5.1-2.6,8.1-6.8,10.1c-72.6,0-145.2,0-217.8,0c-1-1.2-2.3-2.3-2.9-3.7
	c-1.5-3.9,1.4-7.2,6.4-7.2c12.5-0.1,24.9,0,37.4,0c1.4,0,2.9-0.1,4.6-0.2c0-1.8,0-3.1,0-4.5c0-15.2-0.1-30.4,0.1-45.6
	c0-4.1-0.9-7-4.2-10.1c-16.5-15.8-32.5-32.1-48.5-48.3c-7.5-7.7-12.6-16.9-13.8-27.6c-1-9.5-0.8-19.1-1-28.7
	c-0.1-3.2-1.1-4.4-4.4-4.4c-8.9,0.2-17.7,0-26.6,0.1c-4.9,0-5.2,0.3-5.2,5.4c0,23.1,0,46.1,0,69.2c0,1.2,0.1,2.4,0.2,3.7
	c5.2,0,10.1,0,15.3,0c0-1.6,0-3,0-4.3c0-9.2,0-18.5,0-27.7c0-3.7,2.1-5.9,5.3-6s5.3,2,5.6,5.7c0.1,1,0,2,0,3c0,8.9,0.1,17.7,0,26.6
	c0,2.3,0.5,3.4,2.9,4.2c8.8,2.9,14.4,10.7,14.5,19.8c0.1,20,0.1,39.9,0,59.9c-0.1,9-5.7,16.5-14.2,19.7c-1,0.4-2,0.9-3,1.3
	C190.5,584.4,162.3,584.4,134.1,584.4z M410,573.2c0-1.6,0-3,0-4.5c0-28.6,0-57.1,0-85.7c0-24.7,0-49.4,0-74.1
	c0-4.5-0.4-4.9-4.9-4.9c-8.7,0-17.5,0-26.2,0c-4.7,0-5,0.3-5,5.2c0,5.9,0,11.7,0,17.6c0,15.6-5.7,28.9-16.8,39.9c-15,15-30,30-45,45
	c-1.1,1.1-2.6,2-3.6,3.3c-0.9,1.2-2.1,2.8-2.1,4.2c-0.1,17-0.1,33.9-0.1,50.9c0,1,0.1,1.9,0.2,3.1
	C341.1,573.2,375.3,573.2,410,573.2z M363.7,316.6c-1.6-0.3-2.5-0.6-3.3-0.7c-11.8-0.9-22.5-4.9-32.6-11
	c-17.8-10.9-35.6-10.6-53.6-0.1c-6.7,3.9-14.2,6.6-21.5,9.2c-4.3,1.5-9,1.7-13.7,2.5c0,5.2-0.1,10.3,0,15.4
	c0.2,16.6,6.2,30.9,18.2,42.4c7.5,7.3,15.2,14.4,23,21.4c12.6,11.4,29.2,11.4,41.9-0.1c7.7-6.9,15.3-14,22.8-21.1
	c8.9-8.5,15.1-18.7,17-30.9C363.1,334.8,363.1,325.6,363.7,316.6z M239,412.3c0,4.7,0,8.9,0,13.1c-0.1,13.1,4.4,24.3,13.8,33.6
	c15,14.9,30,29.9,44.9,45c2.5,2.6,4.2,2.5,6.8,0c14.9-15.1,29.8-30.2,45-45c13.4-13.1,14.9-29.4,13.4-46.6c-3.1,0-6,0-9,0
	c-0.1,1-0.1,1.7-0.2,2.5c-1.2,20.8-15.5,37.2-36.1,40.2c-8.8,1.3-17.9,0.7-26.9,0.6c-20.6-0.3-37.4-14.5-41.4-34.8
	c-0.5-2.8-0.7-5.6-1-8.5C245.1,412.3,242.3,412.3,239,412.3z M164.2,533.3c0,9.2,0,18.4,0,27.7c0,8.7,3.6,12.4,12.2,12.4
	c12.1,0,24.2,0,36.3,0c8.3,0,12.2-3.9,12.2-12c0.1-18.6,0-37.1,0-55.7c0-8.2-3.9-12.2-12.1-12.3c-12.2-0.1-24.4-0.1-36.6,0
	c-8.1,0.1-11.9,3.9-12,12C164.2,514.7,164.2,524,164.2,533.3z M260.5,267.3c-8.2,0-16.5,0.1-24.7,0c-2.5,0-3.5,0.6-3.5,3.3
	c0.1,10,0,19.9,0.1,29.9c0,4.3,0.6,4.9,5.1,4.8c11.7-0.2,22.1-4.1,32-10.2c11.8-7.3,24.7-10.3,38.6-8.7c9.5,1.1,18,4.6,26,9.6
	c9.4,5.8,19.6,9,30.7,9.4c3.6,0.1,4.9-1.2,4.9-4.8c-0.1-9.8-0.1-19.7,0-29.5c0-2.9-0.8-3.8-3.8-3.8c-15,0.1-29.9,0.3-44.9-0.1
	c-4.5-0.1-7.8,1-10.5,4.7c-2.9,4.1-7.3,6.2-12.1,4.6c-3.2-1.1-6-3.8-8.5-6.3c-2-2.1-3.9-3-6.7-3
	C275.7,267.4,268.1,267.3,260.5,267.3z M259.5,391.6c0,8.9-0.7,17,0.1,25c1.6,15.7,13.1,26.8,28.8,28c8.8,0.7,17.7,0.7,26.5-0.2
	c13.3-1.4,22.2-9.2,26.3-21.8c3.2-9.9,1.1-20.2,1.7-31.4c-4.9,4.5-8.9,8.2-12.9,11.9c-17.3,16-40.7,16-58,0.1
	C268.1,399.5,264,395.8,259.5,391.6z M181,426.5c-1.6,1-2.8,1.7-3.9,2.5c-15,10.7-25.8,24.6-32.7,41.7c-7.9,19.6-6.1,40.1-6,60.5
	c0,0.2,0.3,0.4,0.4,0.5c4.8,0,9.6,0,14.6,0c0-9.1,0-17.9,0-26.8c0-13.8,8.6-22.4,22.3-22.5c1.7,0,3.4,0,5.2,0
	C181,463.8,181,445.5,181,426.5z M421.1,573.1c14.3,0,28.4,0,42.5,0c0-10.1,0-19.9,0-29.7c-14.3,0-28.4,0-42.5,0
	C421.1,553.5,421.1,563.2,421.1,573.1z M301,266.2c6.3-6.8,12.2-13.2,15.7-21.5c2.6-6.3-0.2-12.2-6.7-14.3c-6-1.9-12-1.9-18,0
	c-6.5,2.1-9.3,8-6.7,14.3C288.8,252.9,294.7,259.4,301,266.2z M138.4,573.2c5.9,0,11.4,0,16,0c-0.4-10.1-0.9-20-1.3-29.9
	c-5,0-9.8,0-14.7,0C138.4,553.3,138.4,563,138.4,573.2z M380.6,301.4c-0.2,5-1.8,9-5.5,12.1c-0.6,0.5-1,1.5-1,2.2
	c-0.1,7.3,0,14.6,0,21.9c6.6-1.1,11-6,11.3-12.9c0.3-6.1,0.1-12.2,0-18.3C385.4,303.6,384.1,301.7,380.6,301.4z M221.4,301.9
	c-0.3-0.1-0.6-0.2-0.9-0.3c-0.7,1.4-1.9,2.8-2,4.2c-0.2,6.7-0.2,13.5,0.1,20.2c0.3,5.6,4.3,9.9,9.4,11c0-7.1,0-14.1,0-21.2
	c0-0.8-0.3-1.8-0.9-2.3C223.3,310.6,221.7,306.6,221.4,301.9z"/>
<path d="M364.8,516.8c8.6,0,17.2,0,25.8,0c7.2,0,10.8,3.7,10.9,10.8c0.1,6.6,0.1,13.2,0,19.8c-0.1,7-3.9,10.7-11,10.7
	c-17.2,0-34.4,0-51.6,0c-7,0-10.9-3.8-10.9-10.8c-0.1-6.7-0.1-13.5,0-20.2c0.1-6.4,3.9-10.2,10.3-10.3
	C347.1,516.8,355.9,516.8,364.8,516.8z M390.6,527.8c-17.4,0-34.4,0-51.6,0c0,6.5,0,12.8,0,19.2c17.3,0,34.4,0,51.6,0
	C390.6,540.6,390.6,534.4,390.6,527.8z"/>
<path d="M301,373.4c-4.6,0-9.2,0-13.8,0c-3.8-0.1-6.3-2.2-6.2-5.4c0-3.2,2.5-5.3,6.4-5.3c9.1,0,18.1,0,27.2,0c3.9,0,6.3,2.1,6.4,5.2
	c0.1,3.3-2.4,5.4-6.5,5.5C310,373.5,305.5,373.4,301,373.4z"/>
<path d="M277.5,321.8c0.1,3.8-3.2,7.2-7,7.2c-3.7,0-6.9-3-7-6.8c-0.2-4,2.8-7.2,6.7-7.4C274.1,314.8,277.4,317.9,277.5,321.8z"/>
<path d="M331.5,314.9c3.9-0.1,7.1,3,7.1,7s-3.2,7.2-7,7.1c-3.7,0-6.9-3.2-7-6.9C324.4,318.3,327.6,315,331.5,314.9z"/>
<path d="M194.3,544.1c-3.6,0-7.2,0.1-10.9,0c-4-0.1-6.2-2.1-6.2-5.4c0-3.2,2.1-5.3,5.9-5.3c7.2-0.1,14.5-0.1,21.7,0
	c3.7,0,6,2.2,6.1,5.2c0.1,3.2-2.4,5.4-6.2,5.5C201.3,544.2,197.8,544.1,194.3,544.1z"/>
<path d="M194,567.3c-3.6,0-7.2,0.1-10.9,0s-5.8-2.1-5.8-5.4c0-3.2,2.1-5.3,5.9-5.3c7.4-0.1,14.7-0.1,22.1,0c3.4,0,5.6,2.2,5.7,5.2
	c0.1,3.1-2.3,5.4-5.8,5.5C201.5,567.4,197.7,567.3,194,567.3z"/>
<path d="M182.7,520.1c-3.9,0.1-6.8-2.8-6.8-6.7c0-3.7,2.8-6.7,6.4-6.8c3.7-0.2,7,2.9,7.1,6.6C189.6,516.9,186.5,520,182.7,520.1z"/>
</svg>
