<?xml version="1.0" encoding="utf-8"?>
<!-- Generator: Adobe Illustrator 27.1.1, SVG Export Plug-In . SVG Version: 6.00 Build 0)  -->
<svg version="1.1" id="Layer_1" xmlns="http://www.w3.org/2000/svg" xmlns:xlink="http://www.w3.org/1999/xlink" x="0px" y="0px"
	 viewBox="0 0 595.3 841.9" style="enable-background:new 0 0 595.3 841.9;" xml:space="preserve">
<path d="M98.2,571.8c-4.6-2.6-5.9-6.6-5.5-11.7c3.5-46.4,24.3-81.9,66.7-102.7c13.2-6.5,27.9-10.2,42-14.8c3.8-1.3,6.3-3.1,7.9-6.8
	c3.4-7.5,7.3-14.8,10.4-21.1c-5.4-8.4-10.4-16.3-15.5-23.9c-0.7-1-2.5-1.5-3.9-1.7c-4.5-0.9-9.4-0.7-13.6-2.4
	c-9.2-3.8-13.7-11.4-14.2-21.3c-0.2-3.2,0-6.4,0-9.6c-11.9-5.2-16.4-14.4-16.1-26.9c0.5-19-0.4-38.1,0.9-57
	c2.1-29.8,14.8-55.3,36.5-75.8c26.6-25,58.4-35.9,94.7-32.2c33.1,3.3,60.2,18.4,81.1,44.2c18.3,22.6,26.6,48.7,26.4,77.7
	c-0.1,15,0,30.1,0,45.1c0,16.2-9.9,26.2-26,26.2c-4,0-8,0-11.3,0c-3,10.4-5.5,20.5-9.1,30.3c-3.6,10-10.1,18.3-17.4,26.1
	c4.3,8.7,8.5,17.3,13,25.7c0.6,1.2,2.4,2,3.8,2.5c11.4,3.9,23,7.5,34.4,11.6c33.5,11.9,55.4,35.6,68.5,68c5,12.4,7.3,25.5,8.1,38.8
	c0.3,5.1-1,9.1-5.6,11.7C335.7,571.8,217,571.8,98.2,571.8z M347.7,298.9c-2.2-0.4-3.9-0.7-5.5-1c-6.7-1.2-13.4-2.1-20-3.7
	c-23.7-5.7-44.6-16.9-62.8-33.3c-1.1-1-3-1.9-4.5-1.8c-10.3,0.9-19.6,4.6-27.9,10.6c-8.5,6.1-14.1,14.8-20.1,23
	c-1.1,1.5-1.9,3.9-1.7,5.8c1.5,17.5,3.1,35,5.1,52.4c0.8,7.3,2.5,14.6,3.8,22c7.3,0,14-0.1,20.6,0c2.1,0,3.2-0.6,4.2-2.6
	c4.4-8.7,11.7-13.1,21.5-13.4c5.3-0.1,10.6-0.2,16,0c13.6,0.4,23.9,10.9,23.8,24c0,13.1-10.4,23.4-24,23.8c-4.8,0.1-9.6,0-14.4,0
	c-10.5,0-18.4-4.4-23.2-13.9c-0.4-0.8-1.3-1.9-2.1-1.9c-4.8-0.2-9.6-0.1-15-0.1c7.4,12,16.5,21,28.7,26.3c38,16.8,77.5-4.9,88-44
	c3.6-13.3,4.8-27.2,6.6-40.9C346.3,320.1,346.8,309.6,347.7,298.9z M207.7,457.2c-10.4,3.5-19.9,6.9-29.5,9.8
	c-25.1,7.7-43.4,23.6-56.2,46.1c-7.4,13.1-11.8,27.2-12.9,42.5c50.9,0,101.5,0,153.2,0C240.7,524.2,219.6,493.5,207.7,457.2z
	 M290.8,555.6c51.3,0,101.9,0,152.7,0c-0.1-1.9-0.2-3.5-0.4-5c-0.2-1.5-0.4-2.9-0.7-4.3c-6.9-33.7-24.4-59.7-55.9-74.4
	c-12.2-5.7-25.5-9.1-38.3-13.5c-0.9-0.3-2-0.5-1.9-0.5c-8.5,17.1-15.9,34.2-25.1,50.3C312,524.3,301.2,539.5,290.8,555.6z
	 M347.7,282.5c0.1-0.3,0.3-0.5,0.4-0.8c2.8-27.6-14.6-55.8-40.5-66.1c-12.5-5-25.5-5-38.5-4.6c-25.5,0.7-44.6,12.4-57,34.6
	c-3.8,6.8-6.3,14.1-6.2,22.4c1-0.4,1.3-1.4,1.9-2c12.8-13.7,28.7-21.1,47.3-23c5.6-0.6,9.9,0.9,14,4.8
	C291.1,268.7,317.7,279.5,347.7,282.5z M379.3,274.6c-2.2-46.9-42.9-95.3-102.7-95.5c-59.6-0.3-101.1,47.6-103.5,95.5
	c5,0,10,0,15.1,0c0.1-1.5,0.2-2.8,0.4-4.1c3.5-33.9,20.9-57.5,52.5-70.4c15.3-6.3,31.6-5.8,47.6-4.8c34.2,2,63.4,26.1,72.2,59.1
	c1.7,6.6,2.5,13.4,3.8,20.2C369.6,274.6,374.5,274.6,379.3,274.6z M275.8,474.1c-0.6,0.4-1,0.5-1.2,0.8
	c-8.6,9.1-17.1,18.2-25.8,27.2c-1.9,2-0.9,3.2,0.2,4.8c8.6,13.1,17.2,26.2,25.8,39.3c0.5,0.7,1.1,1.3,1.6,1.9
	c8.2-12.3,16.3-24.3,24.2-36.4c5.1-7.8,5-7.9-1.7-14.5C291.2,489.4,283.5,481.8,275.8,474.1z M313.8,488.4c0,0,0.2-0.1,0.3-0.3
	c5.6-12.9,11.2-25.8,16.7-38.7c0.3-0.7,0.6-1.7,0.3-2.3c-3.4-6.9-6.9-13.8-10.5-21.1c-11.6,12.3-22.8,24.1-33.6,35.6
	C296.2,470.8,305,479.6,313.8,488.4z M238.4,489.9c9.3-9.8,17.5-18.5,25-26.4C252,452.1,241,441.1,230,430.1
	c-2.5,4.9-5.2,10.3-7.9,15.8c-0.5,1-0.8,2.4-0.4,3.3C227,462.4,232.5,475.6,238.4,489.9z M192.3,341c-1.3-16.9-2.6-33.4-4-50
	c-5.3,0-10.5,0-15.9,0c0,14.1-0.1,27.9,0,41.7c0,4.9,3.1,8,7.9,8.3C184.3,341.2,188.2,341,192.3,341z M364.2,290.9
	c-1.3,16.8-2.6,33.3-4,50.2c3.4,0,6.7,0,10,0c6.9-0.1,9.9-3,9.9-10c0-12.3,0-24.7,0-37c0-1-0.2-2-0.3-3.1
	C374.5,290.9,369.5,290.9,364.2,290.9z M267.9,388.9c2.8,0,5.6,0.2,8.4,0c4.6-0.3,7.9-3.7,7.9-7.9c0-4.2-3.3-7.7-7.9-7.9
	c-5.3-0.2-10.6-0.2-16,0c-4.6,0.2-7.9,3.7-7.9,7.9c0,4.2,3.3,7.6,7.9,7.9C262.9,389.1,265.4,388.9,267.9,388.9z M275.7,450.4
	c4.2-4.4,8.5-9.1,13.3-14.1c-10,0-19.1,0-27.4,0C265.9,440.5,270.7,445.3,275.7,450.4z M188.9,357.2c-1.6,8.7,0.2,16.6,8.8,15.3
	c-0.4-2.5-0.9-4.9-1.3-7.4c-0.5-2.6-1-5.2-1.4-7.8C192.8,357.2,190.8,357.2,188.9,357.2z"/>
<path d="M410.9,535c-1.1-0.8-3.9-2.1-5.1-4.2c-4.9-8.5-11-15.9-18.4-22.3c-3.9-3.3-4-7.9-1-11.3c3-3.4,7.4-3.7,11.4-0.6
	c9.1,7.2,16.3,16,21.6,26.3C422.2,528.7,418.6,535,410.9,535z"/>
<path d="M364.1,495.1c-4.2,0-7.9-3.8-7.9-8s3.8-7.9,8-7.9s7.9,3.8,7.9,8C372,491.4,368.3,495.1,364.1,495.1z"/>
</svg>
