<?xml version="1.0" encoding="utf-8"?>
<!-- Generator: Adobe Illustrator 27.1.1, SVG Export Plug-In . SVG Version: 6.00 Build 0)  -->
<svg version="1.1" id="Layer_1" xmlns="http://www.w3.org/2000/svg" xmlns:xlink="http://www.w3.org/1999/xlink" x="0px" y="0px"
	 viewBox="0 0 595.3 841.9" style="enable-background:new 0 0 595.3 841.9;" xml:space="preserve">
<path d="M465.7,497.6c11,6.4,21.8,12.7,32.6,19c6.4,3.7,7.3,6.8,3.7,13.1c-8.4,14.7-16.9,29.3-25.4,44c-3.4,5.9-6.9,6.8-12.9,3.3
	c-10.1-5.8-20-11.7-30.2-17.3c-1.2-0.7-3.7-0.6-4.6,0.2c-17.5,17.1-38.1,28.8-62.1,35.4c0,5.5,0,10.9,0,16.4c0,6.6,0,13.1,0,19.7
	c0,9.1-2,11.1-10.9,11.1c-15.9,0-31.8,0-47.6,0c-9.2,0-11.2-2-11.2-11.4c0-11.9,0-23.8,0-34.7c-11-4.9-22-8.6-31.7-14.3
	c-10.2-6-19.4-13.6-28.6-21.1c-3-2.4-4.7-2.6-7.8-0.7c-9.4,5.7-19,11.1-28.5,16.5c-6.3,3.6-9.6,2.7-13.2-3.4
	c-8.4-14.5-16.9-29-25.3-43.5c-3.8-6.5-3-9.6,3.7-13.4c9.8-5.7,19.5-11.4,29.3-16.9c2.5-1.4,2.9-2.7,2.5-5.7
	c-1.9-15.3-4.1-30.6-4.6-45.9c-0.7-22.6-0.1-45.2,0.2-67.8c0.5-31.1,25.5-56.1,56.6-56.2c54.8-0.2,109.6-0.3,164.5,0
	c32.5,0.2,57.5,27.4,56.6,60c-0.5,18,0.8,36,0.3,54c-0.5,17.3-2.2,34.7-3.5,52C467.3,492.4,466.4,494.7,465.7,497.6z M352.2,627.6
	c0-12,0-23.4,0-34.9c0-7.7,1.3-9.4,8.5-11.2c23.9-5.8,44.3-17.8,61.2-35.7c5.3-5.7,7.2-5.9,13.8-2.1c10.1,5.9,20.3,11.7,30.8,17.8
	c6.8-11.7,13.4-23.2,20.2-34.9c-10.8-6.3-21.4-12.4-31.9-18.6c-5.3-3.1-6.2-5.5-4.5-11.4c0.4-1.5,1.1-2.9,1.4-4.4
	c1.6-8,3.2-15.9,4.9-24.3c-15.8,0-30.2,0-45.1,0c-2.4,20.1-10.5,37.3-25.4,51c-14.8,13.6-32.4,20.8-52.7,21.2
	c-17,0.3-32.6-4.2-46.6-13.9c-20.4-14.1-31.5-33.9-34.6-58.2c-14.9,0-29.3,0-45.1,0c2.1,9.4,3.7,18.3,6,27.1
	c2.1,8.1,1.8,9.6-5.4,13.7c-10.1,5.9-20.3,11.7-30.6,17.8c6.9,11.8,13.5,23.2,20.3,34.9c11-6.3,21.5-12.4,32.1-18.5
	c4.9-2.8,7.6-2.6,11,1.1c17.6,19.2,39.1,31.9,64.6,37.7c4.8,1.1,6.7,4.2,6.7,9c-0.1,10.7,0,21.4,0,32.1c0,1.5,0.2,2.9,0.2,4.5
	C325.5,627.6,338.5,627.6,352.2,627.6z M355.1,374.9c-5,7.2-5.2,7.9-4,15.5c1.6,10.1,3.2,20.2,4.9,30.3c1.8,10.8,3.6,21.6,5.4,32.3
	c16.9,0,33.3,0,50.1,0c0-1.8,0-3.3,0-4.8c0-8.6-0.1-17.1,0-25.7c0.1-4.9,2.7-7.8,6.9-8c4.4-0.1,7.4,2.8,7.6,7.9c0.1,2.9,0,5.8,0,8.7
	c0,7.3,0,14.5,0,21.8c10.3,0,20,0,29.7,0c0-25.4,0.6-50.4-0.2-75.4c-0.6-19.2-15.9-35.6-34.9-37.9c-11.6-1.4-23.5-0.6-35.2-1.1
	c-3.7-0.2-5,1.3-5.9,4.5c-2.8,10.2-5.8,20.2-8.7,30.3c-1,3.4-2.6,6.3-6.3,7.1c-3.6,0.7-6.1-1.1-8.1-3.9
	C356.2,376,355.7,375.6,355.1,374.9z M308.7,374.6c-2.6,3.7-5.2,6.9-9.9,5.7c-4.6-1.2-5.4-5.2-6.5-9.1c-2.8-9.8-5.8-19.6-8.5-29.4
	c-0.7-2.6-1.8-3.3-4.4-3.3c-8.5,0.1-17.1,0-25.7,0.1c-28,0-45.9,17.7-45.9,45.7c0,21.2,0,42.4,0,63.7c0,1.6,0,3.3,0,5
	c10.1,0,19.6,0,29.4,0c0.1-1.6,0.2-3,0.2-4.3c0-8.7,0-17.4,0-26.1c0.1-4.9,2.7-7.9,6.9-8c4.4-0.2,7.4,2.8,7.7,7.8
	c0.1,1.8,0,3.7,0,5.5c0,8.3,0,16.7,0,25.1c17.2,0,33.7,0,50.5,0c3.5-20.8,6.6-41.5,10.4-62C314.1,384.7,312.5,380,308.7,374.6z
	 M267.1,468.1c3.5,22.7,14.6,39.6,34.5,49.9c23.5,12.1,46.7,10.4,68.3-4.8c15.4-10.8,24.2-26,26.6-45.1
	C353.2,468.1,310.7,468.1,267.1,468.1z M346.5,453c-2.6-16-4.7-31.5-7.9-46.9c-3-14.9-5.2-29.4,5.3-42.5c0.2-0.2,0.4-0.5,0.4-0.8
	c0-1,0.3-2.2-0.2-2.9c-3.9-5.4-7.9-10.7-12.1-16.4c-1.7,2.2-3,3.9-4.2,5.6c-2.9,3.9-7.7,7.7-8,11.9c-0.3,4.3,3.6,9,5.9,13.5
	c2.2,4.3,3.9,8.4,2.7,13.4c-1.5,6.2-2.3,12.6-3.3,18.9c-2.5,15.3-5.1,30.6-7.6,46.2C327.1,453,336.5,453,346.5,453z M317.2,338.7
	c-6.9,0-12.8,0-19.1,0c1.7,6,3.4,11.7,5.3,18.4C308.2,350.7,312.5,345.1,317.2,338.7z M360.4,357.1c1.9-6.7,3.6-12.4,5.3-18.2
	c-6.4,0-12.3,0-18.9,0C351.4,345.1,355.6,350.7,360.4,357.1z"/>
<path d="M377.3,257.5c0,9,0.1,18,0,27c-0.2,17.5-11.3,28.5-28.7,28.7c-11.1,0.1-22.3,0.1-33.4,0c-17.2-0.2-28.4-11.2-28.5-28.4
	c-0.2-18.3-0.2-36.6,0-55c0.1-17.4,11.5-28.4,28.9-28.6c11-0.1,22-0.1,33,0c17.4,0.1,28.5,11.3,28.8,28.7
	C377.4,239.2,377.3,248.4,377.3,257.5z M362.6,257.4c0-9,0.1-18,0-27c-0.1-9.6-4.8-14.3-14.4-14.4c-10.8-0.1-21.7-0.1-32.5,0
	c-9.6,0.1-14.4,4.7-14.5,14.3c-0.1,18-0.1,36,0,54c0,9.7,4.6,14.2,14.4,14.3c10.8,0.1,21.7,0.1,32.5,0c10-0.1,14.4-4.6,14.5-14.7
	C362.7,275,362.6,266.2,362.6,257.4z"/>
</svg>
