<?xml version="1.0" encoding="utf-8"?>
<!-- Generator: Adobe Illustrator 27.1.1, SVG Export Plug-In . SVG Version: 6.00 Build 0)  -->
<svg version="1.1" id="Layer_1" xmlns="http://www.w3.org/2000/svg" xmlns:xlink="http://www.w3.org/1999/xlink" x="0px" y="0px"
	 viewBox="0 0 595.3 841.9" style="enable-background:new 0 0 595.3 841.9;" xml:space="preserve">
<path d="M195.3,566.3c-2.2-2-4.6-3.8-6.7-5.9c-26.3-26.4-52.6-52.9-78.8-79.4c-5.2-5.3-5.3-8.8-0.1-14c11-11.1,22-22.1,33-33.1
	c5.2-5.3,11.3-7.9,18.8-7.6c1.2,0,2.9-0.8,3.5-1.8c24.9-43.6,79.2-54.3,118.3-39.3c1.9,0.7,4.1,1,6.2,1.1c25.6,0.1,51.1,0.2,76.7,0
	c10.4-0.1,19.4,2.8,27.6,12.3c0.7-1.5,1.1-3,2-3.9c14.2-14.7,28.4-29.4,42.8-44c14.1-14.4,38.3-10.9,47.8,6.8c5.2,9.8,3.5,25-4,34
	c-13.8,16.6-27.7,33.1-41.5,49.7c-7.1,8.5-14.3,16.9-21.3,25.6c-13.5,16.6-31.2,24.4-52.3,24.6c-32.3,0.2-64.6,0.3-96.9-0.1
	c-11.1-0.1-18,6.1-24.8,13.2c-0.5,0.5-0.5,1.8-0.3,2.7c1.7,8.8-0.6,16.2-7.1,22.5c-11.4,11-22.6,22.2-33.9,33.3
	c-1.3,1.3-2.9,2.3-4.3,3.5C198.3,566.3,196.8,566.3,195.3,566.3z M235.4,492.9c1.1-1,1.9-1.6,2.6-2.3c9.5-10.5,21.2-14.6,35.4-14.4
	c30.9,0.5,61.9,0.2,92.8,0.2c13.9,0,26.3-4.1,36.5-13.7c3.8-3.6,6.9-7.8,10.3-11.8c19.2-22.9,38.4-45.9,57.6-68.9
	c5.8-6.9,5.4-15.9-0.8-21.5c-6-5.4-15-5.2-20.9,0.8c-16,16.4-32,32.9-48,49.4c-0.8,0.8-1.4,2.1-1.5,3.2
	c-0.5,20.7-12.4,32.5-33.2,32.5c-18.2,0-36.4,0-54.6,0c-1.5,0-3,0-4.5-0.2c-3.9-0.7-6.5-3.8-6.3-7.6c0.1-3.8,2.9-6.6,6.9-7.1
	c1.4-0.1,2.7-0.1,4.1-0.1c18.3,0,36.7,0,55,0c1.6,0,3.3,0,4.8-0.3c7.1-1,12.3-6.8,12.8-14c0.4-6.6-4.1-13.2-10.6-15
	c-2.4-0.6-4.9-0.7-7.4-0.7c-26.4,0-52.9,0-79.3-0.1c-2.2,0-4.6-0.1-6.6-1c-15.3-6.4-31.1-7.8-47.3-5.2
	c-23.7,3.8-42.3,15.5-54.8,36.3c-1.4,2.3-1.1,3.5,0.7,5.3c8.5,8.3,16.8,16.7,25.2,25.1C214.6,472,224.9,482.4,235.4,492.9z
	 M198.6,547.3c9.1-9,18.9-18.6,28.6-28.2c4.8-4.8,4.8-8.5-0.1-13.4c-8.4-8.4-16.7-16.7-25.1-25.1c-12.1-12.1-24.1-24.1-36.2-36.2
	c-3.8-3.8-7.8-4.2-11.2-0.9c-10.3,10-20.3,20.1-30.8,30.6C148.7,498.5,173.5,522.7,198.6,547.3z"/>
<path d="M329.3,347.2c-45.6,0-82.5-37-82.4-82.6c0.1-45.4,37.1-82.2,82.5-82.2c45.6,0,82.5,37.1,82.4,82.7
	C411.6,310.5,374.7,347.2,329.3,347.2z M329.3,332.2c37.2,0,67.4-30,67.4-67.2c0.1-37.3-30.1-67.7-67.4-67.7
	c-37.1,0-67.4,30.2-67.4,67.3C261.8,302,291.9,332.2,329.3,332.2z"/>
<path d="M284.4,437.7c-0.1,4.1-3.4,7.3-7.4,7.3c-4.1,0-7.6-3.6-7.5-7.7s3.7-7.4,7.9-7.2C281.5,430.2,284.5,433.5,284.4,437.7z"/>
<path d="M320.3,228.3c0-2.6-0.1-5.4,0-8.1c0.1-4.5,3.2-7.8,7.4-7.8c4.1-0.1,7.8,3.2,7.5,7.6c-0.5,5.8,0.5,10,6.7,12
	c1.7,0.5,3,2.1,4.4,3.5c3.1,3.1,3.2,7.3,0.5,10.4c-2.6,2.9-6.8,3.3-10.1,0.9c-1.5-1.1-2.9-2.3-4.6-3.2c-3.1-1.7-6.3-1.6-9,0.8
	c-2.4,2.1-3.2,4.7-2.2,7.8c1.2,3.5,3.7,5,7.3,5.3c11.5,0.9,19.5,7.6,21.8,18.1c2.1,9.9-2.7,19.3-12.5,24.8c-0.9,0.5-1.8,1.9-1.9,3
	c-0.3,2.2,0,4.5-0.1,6.7c-0.3,4.3-3.3,7.2-7.5,7.2c-4.1,0-7.7-3-7.3-7.3c0.7-6.2-1.1-10.1-7.1-12.6c-2.7-1.1-4.8-3.9-6.8-6.3
	c-2.7-3.2-2.1-7.4,0.8-10.1c3-2.7,7-2.6,10.2,0.2c1.7,1.5,3.2,3.2,5,4.4c3.1,2.1,6.5,2.6,9.8,0.2c2.6-2,3.7-4.8,2.7-8
	c-1.2-3.9-4.1-5.3-8-5.5c-16.7-1.1-26.6-17.9-19.3-32.4C310.1,235,312.7,232.7,320.3,228.3z"/>
</svg>
