<?xml version="1.0" encoding="utf-8"?>
<!-- Generator: Adobe Illustrator 27.1.1, SVG Export Plug-In . SVG Version: 6.00 Build 0)  -->
<svg version="1.1" id="Layer_1" xmlns="http://www.w3.org/2000/svg" xmlns:xlink="http://www.w3.org/1999/xlink" x="0px" y="0px"
	 viewBox="0 0 595.3 841.9" style="enable-background:new 0 0 595.3 841.9;" xml:space="preserve">
<g>
	<path d="M105.9,458.3c2.7-4.1,6.5-5.4,11.4-5.4c13.8,0.3,27.7,0.1,41.5,0.1c6.4,0,8.8,1.8,10.6,8.4c7.8-1.3,15.7-2.6,23.5-3.8
		c0.2-0.4,0.5-0.8,0.7-1.2c-3.7-3.5-7.6-6.8-11.2-10.4c-30.9-31.6-38.7-81.5-18.9-121c0.9-1.7,2.6-3.8,4.2-4.2
		c1.6-0.5,4.8,0.4,5.5,1.6c1,1.8,1.3,4.9,0.4,6.8c-4.5,9.8-7.9,19.9-9,30.7c-3.1,28.9,4.2,54.6,23.9,76.3c5.4,5.9,11,11.5,16.8,17.1
		c1,1,3.1,1.5,4.5,1.3c15.3-2.4,30.5-4.9,45.7-7.7c15.1-2.7,30-1.3,44.9,1.9c6.1,1.3,12.3,2,18.4,3.5c11.5,2.9,20.6,9.1,24.1,21.1
		c3.7,12.9-4.6,25.7-18.6,28.1c-6.3,1.1-12.9,0.5-19.3,0c-8.9-0.7-17.8-2.1-26.7-3.3c-5.7-0.8-8.9,1.2-9.8,6
		c-0.8,4.3,2.2,7.8,7.6,8.8c17.5,3.1,35,6.9,52.7,8.9c7.9,0.9,16.2-1.9,24.3-3.2c0.9-0.1,1.8-1.3,2.5-2.1
		c25.9-26.5,52.3-52.5,77.6-79.6c25.7-27.6,31.2-60.2,20.5-96c-0.2-0.7-0.6-1.3-0.9-2c-41.5,20.1-86.2-5.4-95.5-45.4
		c-3.2,1.5-6.3,2.8-9.3,4.4c-9.8,5-18.1,11.9-25.8,19.6c-9.7,9.7-11.9,9.8-21.6,0c-13.7-13.9-29.5-24.2-48.8-28.1
		c-23.7-4.8-44.8,0.2-62.3,17.7c-3.3,3.2-6.2,3.6-8.8,1.2s-2.4-5.9,0.9-9.1c21-20.8,46.2-26.5,74.4-20.3
		c19.4,4.3,35.7,14.2,49.8,28.1c1.6,1.6,3.2,3.1,4.8,4.7c0.2,0.2,0.4,0.3,0.6,0.4c5.7-5,11-10.6,17.3-14.8c7.8-5.3,16.3-9.6,24.6-14
		c2.1-1.1,2.9-2,2.9-4.3c0-9.6,2-18.8,6.1-27.5c2-4.4,4.8-5.9,8.1-4.5c3.4,1.5,4.2,4.6,2.2,9.2c-14.7,33.3,4.6,70.5,40.2,77.5
		c29.2,5.7,57.9-13.7,64.3-43.5c6.1-28.6-12.7-58.2-41.3-64.7c-16.7-3.8-32.1-0.6-46,9.5c-3.8,2.8-6.3,3-8.7,0.7
		c-2.7-2.5-2.3-6.3,1.1-9c9-7.1,19.2-11.6,30.5-13.2c36.3-5.1,68.7,17.6,75.5,53.5c4.7,25.1-3.4,46.2-22.5,63.1
		c-2.2,1.9-2.4,3.3-1.5,5.9c13.2,41.7,5.9,79-24.6,111c-20.8,21.7-42,43.1-63,64.6c-0.8,0.8-1.4,1.6-2.7,3.1
		c9.5-1.8,18.1-3.5,26.8-5.2c6-1.2,11.9-2.8,17.9-3.6c3.8-0.5,7.8-0.3,11.5,0.5c15,3.3,21.2,18.5,13.3,31.8
		c-4.3,7.1-10.8,11.1-18.6,13.6c-29.5,9.4-59,18.9-88.6,28.4c-7.5,2.4-15,4.7-22.5,6.9c-14.4,4.2-28.8,3.4-43.1-0.6
		c-32.8-9.1-65.6-17.9-98.4-26.9c-0.7-0.2-1.4-0.3-2.1-0.4c-2.8,7-4.5,8.2-12,8.2c-13.7,0-27.4-0.1-41.2,0.1
		c-4.9,0.1-8.5-1.5-10.6-6C105.9,527.1,105.9,492.7,105.9,458.3z M169.1,547c1,0.4,1.8,0.8,2.6,1c34.5,9.4,68.9,18.8,103.4,28.2
		c11.4,3.1,23,3.8,34.3,0.3c38.1-11.9,76.2-24.1,114.2-36.4c3.4-1.1,6.8-3.9,9-6.8c5.4-7,2.2-14.5-6.6-16c-2.3-0.4-4.7-0.5-7-0.1
		c-3.9,0.6-7.8,1.7-11.7,2.4c-18.8,3.7-37.6,7.6-56.5,11c-7.8,1.4-15.9,3.4-23.6,2.4c-18.8-2.4-37.4-6-55.9-9.7
		c-9.9-2-15.5-11.7-13.6-21.7c1.9-9.9,10.3-16,20.5-14.7c8.8,1,17.5,2.5,26.3,3.3c6.1,0.5,12.6,1.2,18.5,0.1
		c9.9-1.9,12.6-12,5.9-19.6c-3.8-4.4-8.9-6.7-14.6-7.7c-5.2-0.9-10.3-1.8-15.4-2.8c-13.5-2.8-27-4.5-40.8-2.1
		c-28.6,4.9-57.2,9.7-85.9,14.4c-2.8,0.5-3.4,1.4-3.4,4c0.1,16.7,0.1,33.4,0.1,50.1C169.1,533.3,169.1,540.1,169.1,547z
		 M157.7,464.5c-13.7,0-27.1,0-40.4,0c0,30.7,0,61,0,91.4c13.6,0,26.9,0,40.4,0C157.7,525.3,157.7,495.1,157.7,464.5z"/>
	<path d="M312.2,371.3c-7,12.2-13.6,23.9-20.3,35.5c-3.8,6.6-8.1,6.7-12.2,0.2c-3.9-6.2-7.8-12.4-12.1-19.2
		c-3.3,5.4-6.3,10.2-9.1,15.2c-1.8,3.2-4.2,4.5-7.9,4.4c-10.5-0.2-21,0-31.4-0.1c-4.7,0-7.2-2.1-7.1-5.8c0.1-3.5,2.5-5.4,7-5.5
		c9.2,0,18.5,0.1,27.7-0.1c1.4,0,3.3-1.1,4-2.3c3.9-6,7.4-12.1,11.1-18.2c3.4-5.5,7.7-5.5,11.2,0c4.1,6.4,8.1,12.8,12.4,19.7
		c1.2-2.1,2.1-3.7,3-5.3c6-10.5,12-21,18-31.5c3.5-6,8.2-5.9,11.5,0.1c8.7,15.8,17.4,31.7,26.1,47.5c0.6,1.2,1.4,2.3,2.3,3.8
		c4.6-7.7,9.1-15.1,13.4-22.5c2-3.4,4.5-4.8,8.5-4.8c14.2,0.2,28.4,0.1,42.7,0.1c4.8,0,7.3,1.9,7.3,5.6c0,3.6-2.5,5.6-7.2,5.7
		c-12.3,0-24.7,0.2-37-0.1c-3.8-0.1-5.7,1.2-7.5,4.4c-4.6,8.3-9.6,16.3-14.5,24.5c-3.6,5.9-8.2,5.9-11.6-0.2
		c-8.6-15.6-17.1-31.2-25.7-46.9C314,374.3,313.2,373,312.2,371.3z"/>
	<path d="M417,273.6c0-5.5,0-10.3,0-15.2c0-4.5,2-6.9,5.6-6.9s5.6,2.4,5.6,6.9c0.1,4.8,0,9.7,0,15.1c4.3,0,8.4,0,12.4,0
		c1.6,0,3.3-0.1,4.8,0.2c3.1,0.5,4.9,2.5,4.7,5.7c-0.2,3.2-2.1,5.1-5.3,5.2c-4.4,0.2-8.7,0.1-13.1,0.1c-1.1,0-2.2,0.1-3.7,0.2
		c0,4.6,0,8.9,0,13.3c0,1.4,0,2.8-0.2,4.1c-0.6,3.1-2.7,4.8-5.9,4.6c-3-0.2-4.9-2-5-5.1c-0.2-4.6-0.2-9.2-0.1-13.8
		c0.1-2.4-0.6-3.4-3.1-3.3c-4.2,0.2-8.5,0.1-12.7,0c-3.9-0.1-6.3-2.1-6.4-5.3c-0.1-3.4,2.3-5.7,6.4-5.8
		C406.3,273.5,411.4,273.6,417,273.6z"/>
</g>
</svg>
