<?xml version="1.0" encoding="utf-8"?>
<!-- Generator: Adobe Illustrator 27.1.1, SVG Export Plug-In . SVG Version: 6.00 Build 0)  -->
<svg version="1.1" id="Layer_1" xmlns="http://www.w3.org/2000/svg" xmlns:xlink="http://www.w3.org/1999/xlink" x="0px" y="0px"
	 viewBox="0 0 595.3 841.9" style="enable-background:new 0 0 595.3 841.9;" xml:space="preserve">
<path d="M66.9,371c2.8-8.2,7.9-13.8,17.1-14.4c2.4-0.2,4.9,0.7,7.4,0.8c1.2,0.1,2.7-0.1,3.5-0.8c18.8-18.8,37.6-37.6,56.5-56.6
	c-7.8-14.6-6.9-28.4,5.7-40.2c7.4-7,21.1-12,37.4-2.7c0.8-0.7,1.6-1.4,2.4-2.2c17.8-17.8,35.6-35.7,53.5-53.5c1.7-1.7,2.2-3,1.4-5.4
	c-2.6-8.1,0.9-16.7,8.2-21c7.1-4.2,16.2-3.1,22.1,2.7c5.9,5.7,7.2,14.8,3.2,22c-4,7.2-12.4,11.1-20.4,8.7c-3.1-0.9-4.7-0.1-6.7,2
	c-9.1,9.3-18.3,18.4-27.5,27.5c-0.9,0.9-1.7,1.7-2.9,3.1c62.7-24.2,121.2-17.2,176.7,21.4c2.6-2.9,5.5-6.1,8.5-9.2
	c3.7-3.7,6.6-3.7,10.3,0c8.2,8.2,16.5,16.4,24.6,24.6c3.5,3.5,3.4,6.5-0.1,10c-8.2,8.2-16.4,16.4-24.6,24.6c-3.5,3.4-6.5,3.4-10,0
	c-8.3-8.1-16.5-16.3-24.7-24.5c-3.6-3.6-3.5-6.7,0.2-10.3c2.1-2.1,4.3-4.2,6.4-6.3c-52.7-40.8-132.8-43.9-190.3-3.2
	c5.9,14.1,4.5,27-7.2,37.7c-9.1,8.4-20.2,9.5-34.6,4.2c-37.2,49.9-41.8,131.4,3.2,190.7c2.2-2.5,4.3-5,6.6-7.3
	c3.1-3.1,6.4-3.1,9.5,0c8.5,8.4,16.9,17,25.3,25.5c2.7,2.8,2.9,6.1,0.3,8.7c-9.4,9.5-18.9,18.8-28.4,28.1c-1.2,0-2.5,0-3.7,0
	c-1.1-0.8-2.3-1.5-3.3-2.5c-8.3-8.3-16.6-16.5-24.9-24.9c-3.4-3.5-3.4-6.5,0.2-10c3.1-3,6.4-5.9,9.3-8.6
	c-38.6-55.5-45.6-114-21.9-176.4c-10.4,10-20.4,20.3-30.5,30.4c-2,1.9-2.3,3.5-1.6,6.1c2.7,9.4-2.5,18.9-11.8,22.1
	c-9,3.1-18.8-1.2-22.7-10c-0.4-1-1-1.9-1.5-2.9C66.9,376.5,66.9,373.7,66.9,371z M195.9,282.8c-0.1-10.4-8.6-18.8-18.9-18.7
	c-10.1,0.2-18.5,8.6-18.6,18.8c-0.1,10.3,8.4,18.8,18.8,18.8C187.7,301.6,195.9,293.3,195.9,282.8z M177.5,506.6
	c-5.6,5.6-11.5,11.5-17,17c5.5,5.5,11.3,11.3,16.8,16.9c5.6-5.6,11.4-11.3,17-17C188.7,517.9,182.9,512.1,177.5,506.6z M401.3,282.4
	c5.8,5.8,11.5,11.5,16.7,16.7c5.5-5.4,11.2-11.2,16.5-16.4c-5.5-5.5-11.2-11.2-16.7-16.8C412.4,271.4,406.7,277.1,401.3,282.4z
	 M275.4,191c0-3.5-2.9-6.4-6.4-6.4c-3.4,0-6.1,2.7-6.3,6.1c-0.1,3.6,2.6,6.5,6.1,6.6C272.4,197.4,275.4,194.5,275.4,191z
	 M85.3,368.5c-3.5,0-5.9,2.4-5.8,5.9c0,3.5,2.7,6.2,6.1,6.3c3.5,0.1,6.2-2.6,6.1-6.1C91.5,371.1,88.7,368.5,85.3,368.5z"/>
<path d="M349.2,555.9c-1.5-1.8-3.3-3.4-4.3-5.4c-5.7-11.2-11.4-22.5-16.9-33.8c-1.2-2.4-2.7-3.9-5.2-4.8
	c-19.8-7.5-39.5-15.2-59.3-22.6c-3.3-1.2-5.3-3.1-6.6-6.5c-20-50.3-40.2-100.6-60.3-150.9c-1.6-4-1.2-7,2-10
	c6.2-5.9,12.3-12.1,18.3-18.2c2.5-2.6,5.1-3.1,8.5-1.8c50.9,20.4,101.8,40.7,152.7,61c3.1,1.2,4.6,3.5,5.7,6.4
	c7.5,19.7,15.1,39.3,22.5,59c1,2.6,2.5,4.3,5,5.5c11.4,5.6,22.8,11.3,34.1,17c6,3,6.7,6.9,1.9,11.7c-30.2,30.2-60.3,60.3-90.5,90.5
	c-1.1,1.1-2.5,2-3.7,3.1C351.7,555.9,350.4,555.9,349.2,555.9z M211.4,326.1c-2.2,1.4-3.3,2.7-2.1,5.7
	c19.2,47.8,38.4,95.7,57.6,143.5c0.6,1.5,2.2,3,3.7,3.6c18.4,7.2,36.9,14.3,55.4,21.5c2.3,0.9,3.7,0.6,5.5-1.2
	c20.7-20.8,41.4-41.5,62.2-62.2c1.8-1.8,2-3.2,1.1-5.5c-7-18-14-36-20.8-54c-1.1-3-2.8-4.6-5.7-5.7c-47.2-18.8-94.4-37.6-141.5-56.6
	c-3.1-1.2-4.9-0.9-6.1,1.7c25.7,25.7,51.3,51.3,77,77c20.6-12.5,40.1-3,48.4,8.6c10,13.9,8.7,32.9-3.2,45.3
	c-11.9,12.3-31.1,14.2-45.2,4.5c-15.8-10.9-19-28.3-9.3-49.2C262.8,377.5,237.2,351.9,211.4,326.1z M352.4,538.7
	c27-27,53.8-53.8,80.7-80.7c-9.3-4.7-19.1-9.5-28.5-14.3c-22.3,22.3-44.3,44.3-66.5,66.4c4.5,9,9.1,18.2,13.7,27.4
	C352.1,538.2,352.4,538.7,352.4,538.7z M294.3,423.2c0,12.9,10.4,23.4,23.3,23.3c12.6,0,23.1-10.4,23.2-23.1
	c0.1-12.8-10.3-23.4-23.2-23.4C304.6,400,294.4,410.2,294.3,423.2z"/>
</svg>
