<?xml version="1.0" encoding="utf-8"?>
<!-- Generator: Adobe Illustrator 27.1.1, SVG Export Plug-In . SVG Version: 6.00 Build 0)  -->
<svg version="1.1" id="Layer_1" xmlns="http://www.w3.org/2000/svg" xmlns:xlink="http://www.w3.org/1999/xlink" x="0px" y="0px"
	 viewBox="0 0 595.3 841.9" style="enable-background:new 0 0 595.3 841.9;" xml:space="preserve">
<g>
	<path d="M242.5,472.6c10.3,15.3,20.1,29.7,30,44.2c11.6,17.2,23.5,34.2,34.9,51.6c15.4,23.5,5.3,53-21,62.1
		c-17.8,6.2-37.2-0.9-48.9-18c-23-33.7-45.9-67.5-68.8-101.3c-1.1-1.7-2.3-3.3-3.6-5.1c-10.4,6.5-21.3,10.3-33.4,10.7
		c-38.6,1.1-70.5-30.4-69.5-69c0.6-22.3,10.5-39.8,28.7-52.5c13.5-9.4,27.4-18.4,40.9-27.9c2.9-2,5.5-5,7.1-8.2
		c26.1-52.5,52-105.1,77.9-157.7c6.3-12.7,16.9-19.3,30.6-20.9c17.3-2,32.9,3.7,47.8,11.7c27.1,14.6,49,35.4,68.4,59
		c28.3,34.6,50.4,72.6,62,116c4.9,18.4,7.5,37,3.5,56c-2,9.7-5.9,18.5-12.9,25.6c-6.8,6.9-15,10.7-24.9,11.5
		c-48.2,3.7-96.3,7.6-144.5,11.5C245.6,471.9,244.5,472.3,242.5,472.6z M228,237.7c0.7,6,1.1,11.8,2,17.5c0.6,4.2,1.5,8.4,2.7,12.4
		c17.2,60.1,50.6,109.5,98.6,149.1c13.3,11,28.1,19.6,45.3,23.5c9.1,2.1,16.4-0.9,22.8-6.9c5.3-5,7.9-11.4,9.3-18.4
		c2.5-12.9,1.3-25.8-1.5-38.5c-5.7-26.2-17.3-50-31.3-72.7c-18.8-30.5-40.9-58.2-69.5-80.1c-12.9-9.9-26.6-18.3-42.7-22.1
		c-18.3-4.3-31.3,4.1-34.4,22.7C228.5,228.7,228.4,233.3,228,237.7z M209.9,260.8c-0.4,0.6-0.9,1.2-1.2,2
		c-17.1,34.8-34.1,69.6-51.3,104.3c-1.4,2.9-0.5,4.7,1,6.9c17.4,25.6,34.8,51.2,52.1,76.9c1.9,2.8,3.8,3.6,7.1,3.4
		c34.9-2.9,69.9-5.6,104.8-8.3c4.1-0.3,8.1-0.8,12.2-1.2C270.7,398,229.2,337,209.9,260.8z M194.1,462.4
		c-17.7-26.1-35-51.6-52.6-77.4c-14.1,9.6-27.9,18.6-41.2,28.3c-19,13.8-23.7,39.5-11.3,59.6c13.6,22.2,38.4,30.8,59.6,19.1
		C164.4,483.5,178.8,472.5,194.1,462.4z M181.9,494.8c2.2,3.3,4.2,6.4,6.3,9.5c22.1,32.5,44.1,65,66.1,97.5
		c4.2,6.2,9.5,10.2,17,10.7c8.8,0.6,15.6-3,20-10.6c4.6-8,3.7-16-1.5-23.5c-22.6-33.3-45.2-66.7-67.8-100c-2.9-4.3-7.6-5.5-12.1-2.6
		C200.7,481.9,191.5,488.3,181.9,494.8z"/>
	<path d="M449,253.4c-6.4,0-9.7-2.3-11.4-6.7c-1.7-4.4,0-8.9,4.5-11.9c9.9-6.6,19.9-13.1,29.8-19.6c12.6-8.3,25.2-16.6,37.9-24.9
		c6.3-4.1,12.2-3.5,15.7,1.6c3.6,5.2,1.9,11.2-4.5,15.5c-22,14.5-44,28.9-66,43.3C452.7,252,450.1,252.9,449,253.4z"/>
	<path d="M465.5,300.1c13.5,2.4,27.9,5,42.3,7.6c12.7,2.3,25.4,4.6,38.1,6.8c6.2,1.1,10.2,5.6,9.6,11.1c-0.7,6-6.2,10-12.7,8.9
		c-26.6-4.7-53.2-9.5-79.8-14.3c-6.4-1.2-10.1-6-9.3-11.4C454.6,303.3,458.9,299.8,465.5,300.1z"/>
	<path d="M414.4,122.8c-2.6,25.2-5.1,50.4-7.9,75.6c-0.6,5.9-5.4,9.4-11.1,8.8c-5.5-0.5-9.2-5.1-8.7-11.2c1.9-20,4-40,6-59.9
		c0.5-5.1,0.9-10.2,1.6-15.2c0.8-5.9,5.2-9.5,10.9-9.1C410.8,112.3,414.6,116.9,414.4,122.8z"/>
	<path d="M296.7,278.6c28.2,0,48.9,14.7,56.5,36.9c7.5,21.9,0.3,46.2-18,60.4c-2.3,1.8-5.2,3.3-8.1,3.8c-4.5,0.8-8-1.6-9.8-5.7
		s-1.1-8,2.2-11.2c1.2-1.2,2.6-2.1,3.9-3.2c13.5-11.3,16.3-31,6.5-45.6c-9.9-14.8-29.5-19.5-45.1-11c-0.9,0.5-1.8,1-2.6,1.5
		c-5.9,3.3-11.6,2.1-14.6-3.1c-2.9-5-1.1-10.8,4.5-14.3C280.9,281.4,290.5,278.6,296.7,278.6z"/>
</g>
</svg>
